<svg fill="none" height="593" viewBox="0 0 593 593" width="593" xmlns="http://www.w3.org/2000/svg" xmlns:xlink="http://www.w3.org/1999/xlink"><clipPath id="a"><path d="m0 0h593v593h-593z"/></clipPath><clipPath id="b"><path d="m55.5938 43.2395h803.021v716.542h-803.021z"/></clipPath><g clip-path="url(#a)"><g clip-path="url(#b)"><path d="m715.838 275.247c-8.33-2.873-16.962-5.591-25.85-8.161 1.461-5.974 2.801-11.869 3.994-17.665 19.568-95.165 6.773-171.8307-36.915-197.0723-41.892-24.2034-110.403 1.0325-179.596 61.3623-6.654 5.802-13.326 11.944-19.995 18.381-4.444-4.259-8.881-8.375-13.306-12.312-72.516-64.5085-145.202-91.6934-188.848-66.3788-41.852 24.2736-54.246 96.3468-36.632 186.5358 1.701 8.711 3.689 17.607 5.938 26.652-10.287 2.925-20.219 6.044-29.721 9.363-85.017 29.696-139.3132 76.238-139.3132 124.515 0 49.86 58.2862 99.871 146.8392 130.195 6.988 2.393 14.239 4.655 21.712 6.804-2.426 9.782-4.536 19.368-6.307 28.718-16.795 88.624-3.679 158.994 38.061 183.114 43.114 24.91 115.472-.694 185.93-62.399 5.568-4.878 11.157-10.05 16.756-15.472 7.257 7.001 14.502 13.627 21.709 19.842 68.247 58.84 135.651 82.599 177.353 58.412 43.071-24.981 57.069-100.576 38.896-192.549-1.388-7.024-3.003-14.2-4.817-21.504 5.081-1.505 10.07-3.059 14.934-4.674 92.058-30.559 151.955-79.961 151.955-130.487 0-48.451-56.047-95.307-142.777-125.22zm-19.967 223.083c-4.391 1.456-8.896 2.864-13.487 4.229-10.163-32.234-23.879-66.511-40.664-101.925 16.017-34.57 29.203-68.408 39.081-100.433 8.215 2.381 16.188 4.893 23.871 7.544 74.31 25.63 119.638 63.523 119.638 92.722 0 31.102-48.953 71.476-128.439 97.863zm-32.981 65.477c8.036 40.669 9.184 77.439 3.861 106.183-4.783 25.829-14.401 43.05-26.293 49.947-25.307 14.675-79.426-4.401-137.791-54.721-6.691-5.768-13.431-11.928-20.192-18.447 22.627-24.793 45.241-53.616 67.312-85.627 38.82-3.451 75.496-9.094 108.756-16.797 1.638 6.621 3.093 13.114 4.347 19.462zm-333.528 153.593c-24.725 8.749-44.418 9-56.322 2.123-25.329-14.637-35.86-71.138-21.496-146.929 1.645-8.68 3.604-17.596 5.861-26.709 32.895 7.287 69.302 12.532 108.215 15.692 22.22 31.324 45.487 60.116 68.934 85.326-5.122 4.955-10.225 9.672-15.299 14.117-31.156 27.285-62.378 46.644-89.893 56.38zm-115.835-219.26c-39.156-13.409-71.492-30.836-93.658-49.852-19.9163-17.089-29.9719-34.055-29.9719-47.821 0-29.296 43.5939-66.663 116.3019-92.061 8.822-3.081 18.057-5.986 27.641-8.714 10.048 32.749 23.23 66.988 39.137 101.611-16.113 35.137-29.482 69.922-39.629 103.055-6.832-1.968-13.451-4.039-19.821-6.218zm38.829-264.804c-15.091-77.271-5.069-135.5622 20.153-150.1893 26.865-15.5823 86.27 6.6348 148.882 62.3353 4.003 3.56 8.021 7.286 12.05 11.141-23.332 25.1-46.386 53.675-68.408 84.814-37.767 3.507-73.918 9.141-107.157 16.685-2.089-8.422-3.941-16.696-5.52-24.786zm346.387 85.694c-7.946-13.751-16.103-27.177-24.419-40.236 25.621 3.245 50.169 7.553 73.222 12.824-6.921 22.223-15.547 45.458-25.702 69.278-7.284-13.855-14.988-27.825-23.101-41.866zm-141.256-137.844c15.823 17.175 31.669 36.35 47.255 57.155-15.706-.743-31.606-1.13-47.638-1.13-15.88 0-31.663.378-47.272 1.109 15.602-20.612 31.585-39.762 47.655-57.134zm-142.16 138.081c-7.938 13.79-15.499 27.684-22.669 41.603-9.989-23.736-18.536-47.078-25.517-69.615 22.912-5.137 47.344-9.337 72.802-12.521-8.433 13.179-16.658 26.704-24.616 40.53zm25.35 205.384c-26.304-2.94-51.103-6.924-74.009-11.919 7.093-22.94 15.828-46.78 26.029-71.027 7.188 13.909 14.78 27.809 22.766 41.628h.001c8.134 14.079 16.562 27.87 25.213 41.318zm117.759 97.52c-16.259-17.576-32.476-37.018-48.315-57.93 15.376.604 31.051.914 46.983.914 16.368 0 32.548-.37 48.474-1.08-15.637 21.289-31.426 40.761-47.142 58.096zm163.736-181.702c10.733 24.51 19.781 48.225 26.965 70.774-23.283 5.322-48.422 9.608-74.908 12.793 8.336-13.236 16.565-26.892 24.651-40.939 8.18-14.212 15.948-28.445 23.292-42.628zm-53.007 25.458c-12.553 21.806-25.44 42.622-38.523 62.272-23.829 1.707-48.447 2.586-73.538 2.586-24.989 0-49.297-.778-72.705-2.3-13.61-19.907-26.777-40.785-39.25-62.371h.003c-12.44-21.527-23.889-43.235-34.263-64.822 10.371-21.637 21.79-43.37 34.159-64.859l-.003.005c12.401-21.546 25.452-42.322 38.937-62.105 23.882-1.808 48.371-2.752 73.121-2.752h.001c24.861 0 49.382.951 73.257 2.775 13.278 19.638 26.241 40.347 38.691 61.896 12.591 21.79 24.158 43.378 34.618 64.551-10.429 21.537-21.969 43.343-34.505 65.124zm70.767-383.8028c26.89 15.5365 37.347 78.1948 20.452 160.3598-1.077 5.243-2.291 10.583-3.609 15.995-33.315-7.702-69.493-13.433-107.37-16.993-22.065-31.481-44.93-60.101-67.882-84.879 6.171-5.947 12.333-11.618 18.469-16.97 59.285-51.69 114.694-72.0984 139.94-57.5128zm-182.828 246.4998c39.602 0 71.707 32.165 71.707 71.843 0 39.677-32.105 71.842-71.707 71.842s-71.707-32.165-71.707-71.842c0-39.678 32.105-71.843 71.707-71.843z" fill="#0079ff"/></g></g></svg>