<svg fill="none" height="192" viewBox="0 0 192 192" width="192" xmlns="http://www.w3.org/2000/svg" xmlns:xlink="http://www.w3.org/1999/xlink"><clipPath id="a"><path d="m0 0h192v192h-192z"/></clipPath><g clip-path="url(#a)"><path d="m0 0h192v192h-192z" fill="#eff0f5"/><path d="m231.772 89.1188c-2.697-.9301-5.492-1.8102-8.369-2.6425.472-1.9339.907-3.8429 1.293-5.7194 6.335-30.8123 2.193-55.6349-11.953-63.8076-13.563-7.83646-35.746.3344-58.149 19.8679-2.154 1.8783-4.314 3.867-6.474 5.9512-1.438-1.379-2.875-2.7116-4.308-3.9862-23.479-20.8865-47.013-29.68837-61.1445-21.4921-13.5507 7.8593-17.5636 31.1949-11.8606 60.396.5508 2.8205 1.1945 5.7008 1.9225 8.6293-3.3308.9473-6.5463 1.9572-9.6229 3.0315-27.5267 9.6152-45.1065 24.6841-45.1065 40.3151 0 16.144 18.8719 32.336 47.5431 42.154 2.2626.775 4.6104 1.508 7.0299 2.203-.7854 3.168-1.4685 6.271-2.0419 9.299-5.4379 28.694-1.1912 51.478 12.3233 59.288 13.9594 8.065 37.3866-.225 60.1996-20.204 1.803-1.579 3.613-3.254 5.425-5.009 2.35 2.267 4.696 4.412 7.029 6.424 22.097 19.051 43.921 26.744 57.423 18.913 13.946-8.089 18.478-32.564 12.594-62.343-.449-2.274-.972-4.598-1.56-6.963 1.646-.487 3.261-.99 4.836-1.513 29.806-9.894 49.199-25.89 49.199-42.249 0-15.687-18.147-30.8581-46.228-40.5432zm-6.465 72.2292c-1.421.472-2.88.927-4.367 1.369-3.29-10.436-7.731-21.534-13.166-33.001 5.186-11.193 9.456-22.149 12.654-32.5178 2.66.7711 5.241 1.5844 7.729 2.4427 24.06 8.2981 38.736 20.5671 38.736 30.0211 0 10.07-15.85 23.142-41.586 31.686zm-10.678 21.2c2.602 13.168 2.973 25.073 1.25 34.38-1.549 8.363-4.663 13.938-8.513 16.171-8.194 4.752-25.717-1.425-44.614-17.717-2.166-1.868-4.348-3.862-6.537-5.973 7.326-8.027 14.648-17.359 21.794-27.724 12.569-1.117 24.444-2.944 35.212-5.438.531 2.143 1.002 4.246 1.408 6.301zm-107.989 49.73c-8.0056 2.833-14.3815 2.914-18.2357.687-8.2012-4.739-11.6106-23.033-6.96-47.572.5327-2.81 1.1667-5.697 1.8975-8.648 10.6508 2.36 22.4382 4.058 35.0382 5.081 7.194 10.142 14.727 19.464 22.319 27.626-1.659 1.605-3.311 3.132-4.954 4.571-10.087 8.835-20.196 15.103-29.105 18.255zm-37.5047-70.992c-12.6778-4.341-23.1477-9.983-30.3243-16.14-6.4486-5.533-9.7043-11.027-9.7043-15.484 0-9.485 14.1148-21.584 37.6559-29.8069 2.8563-.9978 5.8465-1.9382 8.9495-2.8215 3.2535 10.6034 7.5214 21.6894 12.6718 32.8994-5.2171 11.377-9.5456 22.639-12.831 33.367-2.2122-.637-4.3554-1.308-6.4176-2.014zm12.5719-85.737c-4.8862-25.0188-1.6411-43.892 6.5249-48.628 8.6983-5.0452 27.9329 2.1482 48.2049 20.1827 1.296 1.1527 2.597 2.3592 3.901 3.6074-7.554 8.1267-15.018 17.3788-22.149 27.4609-12.228 1.1355-23.9326 2.9596-34.6945 5.4022-.6766-2.7268-1.2759-5.4059-1.7873-8.0252zm112.1518 27.746c-2.572-4.4526-5.213-8.7995-7.906-13.0277 8.296 1.0507 16.244 2.4454 23.708 4.1522-2.241 7.1955-5.034 14.7185-8.322 22.4305-2.358-4.486-4.853-9.009-7.48-13.555zm-45.735-44.631c5.123 5.5608 10.254 11.7693 15.3 18.5055-5.085-.2406-10.233-.3658-15.424-.3658-5.142 0-10.252.1224-15.306.3589 5.052-6.6736 10.227-12.8739 15.43-18.4986zm-46.028 44.708c-2.5702 4.464-5.0184 8.963-7.3398 13.47-3.2345-7.686-6.0016-15.243-8.2619-22.5403 7.4182-1.6632 15.3287-3.0231 23.5717-4.0539-2.731 4.2672-5.393 8.6461-7.97 13.1232zm8.207 66.498c-8.516-.952-16.5455-2.242-23.9618-3.859 2.2964-7.427 5.1245-15.146 8.4275-22.997 2.3274 4.504 4.7853 9.004 7.3713 13.478 2.634 4.559 5.363 9.024 8.163 13.378zm38.128 31.575c-5.264-5.691-10.515-11.986-15.643-18.757 4.978.196 10.054.296 15.212.296 5.299 0 10.538-.119 15.695-.349-5.063 6.893-10.175 13.197-15.264 18.81zm53.014-58.831c3.475 7.936 6.405 15.614 8.731 22.915-7.539 1.723-15.678 3.111-24.254 4.142 2.7-4.285 5.364-8.707 7.982-13.255 2.648-4.602 5.163-9.21 7.541-13.802zm-17.162 8.243c-4.065 7.06-8.237 13.8-12.473 20.162-7.715.553-15.686.837-23.81.837-8.091 0-15.961-.252-23.54-.744-4.407-6.446-8.67-13.206-12.709-20.195h.001c-4.027-6.97-7.734-13.998-11.093-20.988 3.358-7.005 7.055-14.042 11.06-20.999l-.001.001c4.015-6.976 8.241-13.7029 12.607-20.108 7.732-.5857 15.661-.8912 23.675-.8912 8.049 0 15.989.3079 23.719.8986 4.299 6.3583 8.496 13.0636 12.527 20.0406 4.077 7.055 7.822 14.045 11.209 20.9-3.377 6.973-7.113 14.034-11.172 21.086zm22.912-124.267c8.707 5.0304 12.093 25.3178 6.623 51.9209-.349 1.6975-.742 3.4265-1.169 5.1788-10.787-2.4937-22.5-4.3493-34.764-5.502-7.144-10.1928-14.547-19.4593-21.979-27.4817 1.998-1.9257 3.993-3.7618 5.98-5.4945 19.195-16.7362 37.135-23.344 45.309-18.6215zm-59.195 79.811c12.822 0 23.217 10.414 23.217 23.261s-10.395 23.261-23.217 23.261-23.217-10.414-23.217-23.261 10.395-23.261 23.217-23.261z" fill="#0079ff"/></g></svg>