<svg fill="none" height="250" viewBox="0 0 250 250" width="250" xmlns="http://www.w3.org/2000/svg" xmlns:xlink="http://www.w3.org/1999/xlink"><clipPath id="a"><path d="m13 90h224v70h-224z"/></clipPath><g clip-path="url(#a)"><path d="m131.054 107.588c0 2.522-2.029 4.554-4.549 4.554-2.519 0-4.548-2.032-4.548-4.554 0-2.523 1.959-4.555 4.548-4.555 2.59.07 4.549 2.102 4.549 4.555zm-18.754 9.179v1.121s-2.169-2.803-6.788-2.803c-7.6276 0-13.5758 5.816-13.5758 13.874 0 7.988 5.8782 13.874 13.5758 13.874 4.689 0 6.788-2.873 6.788-2.873v1.191c0 .561.42.981.98.981h5.668v-26.346s-5.179 0-5.668 0c-.56 0-.98.49-.98.981zm0 16.887c-1.05 1.541-3.149 2.873-5.668 2.873-4.479 0-7.9079-2.803-7.9079-7.568s3.4289-7.568 7.9079-7.568c2.449 0 4.688 1.402 5.668 2.873zm10.846-17.868h6.718v26.346h-6.718zm100.349-.701c-4.618 0-6.788 2.803-6.788 2.803v-14.785h-6.718v39.029h5.669c.559 0 .979-.49.979-.981v-1.191s2.17 2.873 6.788 2.873c7.628 0 13.576-5.886 13.576-13.874s-5.948-13.874-13.506-13.874zm-1.12 21.371c-2.589 0-4.618-1.331-5.668-2.872v-9.39c1.05-1.401 3.289-2.873 5.668-2.873 4.479 0 7.908 2.803 7.908 7.568s-3.429 7.567-7.908 7.567zm-15.885-9.949v15.695h-6.717v-14.925c0-4.344-1.4-6.096-5.179-6.096-2.029 0-4.129 1.051-5.458 2.593v18.358h-6.718v-26.346h5.318c.56 0 .98.49.98.981v1.121c1.959-2.032 4.549-2.803 7.138-2.803 2.939 0 5.388.841 7.347 2.523 2.38 1.962 3.289 4.484 3.289 8.899zm-40.377-11.422c-4.619 0-6.788 2.803-6.788 2.803v-14.785h-6.718v39.029h5.668c.56 0 .98-.49.98-.981v-1.191s2.169 2.873 6.788 2.873c7.628 0 13.576-5.886 13.576-13.874.07-7.988-5.878-13.874-13.506-13.874zm-1.12 21.371c-2.589 0-4.618-1.331-5.668-2.872v-9.39c1.05-1.401 3.289-2.873 5.668-2.873 4.479 0 7.908 2.803 7.908 7.568s-3.429 7.567-7.908 7.567zm-18.194-21.371c2.029 0 3.079.35 3.079.35v6.237s-5.598-1.892-9.097 2.102v18.428h-6.718v-26.416h5.668c.56 0 .98.49.98.981v1.121c1.26-1.472 3.989-2.803 6.088-2.803zm-69.7681 24.665c-.3499-.841-.6998-1.752-1.0497-2.523-.5598-1.261-1.1197-2.452-1.6095-3.573l-.07-.07c-4.8285-10.511-10.0068-21.162-15.4651-31.672l-.21-.421c-.5598-1.051-1.1196-2.1717-1.6794-3.2928-.6998-1.2613-1.3996-2.5926-2.5193-3.8539-2.2393-2.8028-5.4583-4.3443-8.8872-4.3443-3.4989 0-6.6479 1.5415-8.9572 4.2042-1.0497 1.2613-1.8194 2.5926-2.5192 3.8539-.5598 1.1211-1.1196 2.2419-1.6795 3.2929l-.2099.421c-5.3883 10.51-10.6367 21.161-15.4652 31.671l-.07.141c-.4898 1.121-1.0496 2.312-1.6094 3.573-.3499.771-.6998 1.612-1.0497 2.523-.9097 2.592-1.1896 5.045-.8398 7.567.7698 5.256 4.2687 9.67 9.0972 11.632 1.8194.771 3.7088 1.121 5.6682 1.121.5599 0 1.2596-.07 1.8195-.14 2.3092-.28 4.6885-1.051 6.9978-2.383 2.8691-1.611 5.5982-3.923 8.6773-7.287 3.079 3.364 5.8781 5.676 8.6772 7.287 2.3093 1.332 4.6886 2.103 6.9979 2.383.5598.07 1.2596.14 1.8194.14 1.9594 0 3.9188-.35 5.6682-1.121 4.8985-1.962 8.3274-6.447 9.0972-11.632.5598-2.452.2799-4.905-.6298-7.497zm-31.5602 3.643c-3.7788-4.764-6.228-9.249-7.0678-13.033-.3498-1.611-.4198-3.013-.2099-4.274.14-1.121.5598-2.102 1.1197-2.943 1.3295-1.892 3.5688-3.083 6.158-3.083s4.8985 1.121 6.1581 3.083c.5598.841.9797 1.822 1.1197 2.943.2099 1.261.1399 2.733-.21 4.274-.8397 3.714-3.2889 8.199-7.0678 13.033zm27.9213 3.294c-.4898 3.643-2.9391 6.796-6.368 8.198-1.6795.701-3.4989.911-5.3183.701-1.7495-.211-3.4989-.771-5.3184-1.822-2.5192-1.402-5.0384-3.574-7.9775-6.797 4.6186-5.676 7.4177-10.861 8.4674-15.486.4898-2.172.5598-4.134.3499-5.955-.2799-1.752-.9098-3.364-1.8894-4.765-2.1694-3.153-5.8082-4.975-9.867-4.975-4.0587 0-7.6976 1.892-9.8669 4.975-.9797 1.401-1.6095 3.013-1.8894 4.765-.2799 1.821-.2099 3.853.3499 5.955 1.0497 4.625 3.9188 9.88 8.4674 15.556-2.8691 3.223-5.4583 5.395-7.9776 6.797-1.8194 1.051-3.5688 1.611-5.3183 1.822-1.8894.21-3.7088-.07-5.3183-.701-3.429-1.401-5.8782-4.555-6.368-8.198-.21-1.752-.07-3.504.6298-5.466.2099-.7.5598-1.401.9097-2.242.4898-1.121 1.0497-2.312 1.6095-3.503l.07-.141c4.8284-10.44 10.0068-21.091 15.3951-31.461l.21-.42c.5598-1.052 1.1196-2.173 1.6795-3.224.5598-1.1208 1.1896-2.1719 1.9593-3.0828 1.4696-1.6817 3.429-2.5926 5.5983-2.5926s4.1287.9109 5.5982 2.5926c.7698.9109 1.3996 1.962 1.9594 3.0828.5599 1.051 1.1197 2.172 1.6795 3.224l.2099.42c5.3184 10.44 10.4968 21.091 15.3252 31.531v.071c.5599 1.121 1.0497 2.382 1.6095 3.503.3499.841.6998 1.542.9098 2.242.5598 1.822.7697 3.574.4898 5.396z" fill="#ff5a5f"/></g></svg>