<svg fill="none" height="250" viewBox="0 0 250 250" width="250" xmlns="http://www.w3.org/2000/svg"><path d="m116.913 63.3778-55.9694 23.1593c-3.1124 1.2881-3.0802 5.709.0518 6.9504l56.2036 22.2875c4.938 1.959 10.438 1.959 15.375 0l56.205-22.2875c3.131-1.2414 3.164-5.6623.05-6.9504l-55.968-23.1593c-5.106-2.1129-10.843-2.1129-15.948 0z" fill="#ffbf00"/><path d="m129.873 127.946v55.678c0 2.649 2.67 4.462 5.132 3.486l62.628-24.309c1.429-.567 2.367-1.948 2.367-3.486v-55.678c0-2.648-2.67-4.4614-5.132-3.486l-62.628 24.309c-1.429.567-2.367 1.949-2.367 3.486z" fill="#26b5f8"/><path d="m115.249 130.819-18.5866 8.974-1.8871.913-39.235 18.799c-2.4871 1.2-5.6615-.613-5.6615-3.375v-52.259c0-.999.5125-1.862 1.1998-2.512.2868-.288.6118-.525.9495-.712.9377-.563 2.275-.7132 3.412-.263l59.4969 23.573c3.024 1.2 3.261 5.437.312 6.862z" fill="#ed3049"/><path d="m115.249 130.819-18.5866 8.974-45.5838-38.434c.2868-.288.6118-.525.9495-.712.9377-.563 2.275-.7132 3.412-.263l59.4969 23.573c3.024 1.2 3.261 5.437.312 6.862z" fill="#000" fill-opacity=".25"/></svg>