<svg fill="none" height="250" viewBox="0 0 250 250" width="250" xmlns="http://www.w3.org/2000/svg"><path d="m12.8025 95.0244h43.6543c4.2963 0 7.8025 3.4578 7.8025 7.7326v43.267c0 4.258-3.4889 7.731-7.8025 7.731h-43.6543c-4.29633 0-7.8025-3.455-7.8025-7.731v-43.286c0-4.2558 3.48642-7.7136 7.8025-7.7136z" fill="#5468ff"/><path d="m40.805 108.135v-2.014c-.0011-1.407-1.1527-2.547-2.5728-2.547h-5.9976c-1.4201 0-2.5717 1.14-2.5728 2.547v2.068c0 .23.2148.392.4494.338 1.6966-.486 3.4538-.731 5.2197-.729 1.7111 0 3.405.23 5.042.675.2173.054.4321-.105.4321-.338zm-16.437 2.636-1.0247-1.016c-.4822-.478-1.1364-.746-1.8185-.746-.6822 0-1.3364.268-1.8186.746l-1.2247 1.212c-.4835.476-.7554 1.124-.7554 1.8 0 .675.2719 1.323.7554 1.799l1.0075.999c.1629.159.3975.122.5407-.037.5944-.809 1.2506-1.571 1.963-2.281.7183-.714 1.4946-1.369 2.3209-1.957.1798-.108.1976-.358.0544-.519zm10.9452 6.394v8.712c0 .25.2716.428.5037.303l7.8148-4.008c.1778-.088.2321-.303.1432-.48-1.6198-2.816-4.6272-4.74-8.1013-4.864-.1802 0-.3604.141-.3604.337zm0 20.987c-6.5161 0-11.8099-5.24-11.8099-11.688s5.2938-11.685 11.8099-11.685c6.5185 0 11.8103 5.237 11.8103 11.685s-5.2741 11.688-11.8103 11.688zm0-28.289c-9.2544 0-16.7605 7.429-16.7605 16.601 0 9.174 7.5061 16.587 16.7605 16.587 9.2543 0 16.7604-7.43 16.7604-16.604s-7.4888-16.584-16.7604-16.584z" fill="#fff"/><path d="m123.13 141.607c-11.538.053-11.538-9.229-11.538-10.707l-.02-34.7705 7.039-1.1061v34.5576c0 .84 0 6.147 4.519 6.165v5.86zm-28.533-5.683c2.16 0 3.763-.125 4.879-.337v-7.09c-.5572-.147-1.1228-.26-1.6938-.34-.8103-.119-1.6283-.179-2.4474-.178-.7753 0-1.5679.053-2.358.178-.7926.108-1.5136.321-2.1433.624-.6296.304-1.153.732-1.5308 1.282-.3951.553-.5753.874-.5753 1.711 0 1.637.5753 2.584 1.6197 3.206 1.0445.624 2.4667.944 4.2499.944zm-.6123-25.295c2.3209 0 4.2834.286 5.8686.856 1.5837.57 2.8627 1.37 3.7977 2.386.955 1.033 1.602 2.405 1.998 3.866.415 1.461.612 3.064.612 4.826v17.923c-1.079.23-2.719.496-4.913.817-2.1959.321-4.6621.482-7.4009.482-1.8173 0-3.4913-.179-4.9852-.516-1.5135-.338-2.7901-.891-3.8716-1.657-1.0617-.766-1.8889-1.747-2.5012-2.956-.5951-1.214-.9012-2.922-.9012-4.703 0-1.711.3407-2.797 1.0098-3.974.6815-1.175 1.6-2.137 2.7531-2.886 1.1704-.748 2.5013-1.282 4.0321-1.602 1.5309-.321 3.1334-.483 4.7877-.483.7753 0 1.5852.054 2.4494.142.8469.091 1.7654.252 2.7382.482v-1.14c0-.8-.0913-1.566-.2889-2.278-.1898-.702-.5348-1.353-1.0098-1.906-.4864-.553-1.1136-.982-1.9062-1.283-.7926-.303-1.8025-.536-3.0074-.536-1.6198 0-3.0963.196-4.4469.429-1.3506.23-2.4667.499-3.3136.8l-.8444-5.717c.8814-.303 2.195-.607 3.8888-.908 1.6914-.323 3.5112-.464 5.4544-.464zm139.0173 25.099c2.16 0 3.76-.124 4.876-.34v-7.086c-.395-.108-.953-.233-1.691-.341-.811-.119-1.629-.178-2.449-.178-.773 0-1.566.054-2.358.178-.79.108-1.511.321-2.141.624-.632.304-1.153.732-1.531 1.283-.397.553-.575.873-.575 1.71 0 1.637.575 2.584 1.62 3.206 1.061.641 2.466.944 4.249.944zm-.595-25.276c2.321 0 4.283.284 5.869.854 1.582.571 2.861 1.371 3.797 2.386.936 1.016 1.603 2.406 1.998 3.867.414 1.461.612 3.064.612 4.828v17.92c-1.079.23-2.719.497-4.914.82-2.195.32-4.661.479-7.4.479-1.817 0-3.491-.178-4.984-.516-1.514-.338-2.79-.891-3.872-1.657-1.062-.766-1.889-1.747-2.501-2.956-.595-1.211-.901-2.922-.901-4.703 0-1.711.343-2.797 1.009-3.974.682-1.175 1.6-2.136 2.754-2.885 1.17-.747 2.501-1.283 4.032-1.603 1.531-.321 3.133-.48 4.79-.48.773 0 1.583.054 2.447.142s1.765.25 2.735.482v-1.14c0-.803-.088-1.569-.286-2.281-.189-.702-.534-1.353-1.01-1.906-.486-.553-1.113-.981-1.906-1.282-.793-.304-1.802-.534-3.007-.534-1.62 0-3.097.196-4.447.426-1.351.232-2.467.499-3.314.803l-.844-5.719c.881-.304 2.195-.605 3.889-.908 1.691-.304 3.508-.463 5.454-.463zm-21.136-3.313c2.358 0 4.287-1.889 4.287-4.224 0-2.332-1.91-4.221-4.287-4.221-2.375 0-4.284 1.889-4.284 4.221 0 2.335 1.926 4.224 4.284 4.224zm3.546 34.467h-7.075v-30.07l7.074-1.103v31.173zm-12.403.001c-11.538.053-11.538-9.229-11.538-10.707l-.02-34.7705 7.039-1.1061v34.5576c0 .84 0 6.147 4.519 6.165zm-22.882-15.39c0-3.013-.666-5.524-1.962-7.268-1.296-1.765-3.114-2.636-5.437-2.636-2.321 0-4.141.871-5.435 2.636-1.297 1.762-1.928 4.255-1.928 7.268 0 3.046.649 5.092 1.946 6.856 1.296 1.782 3.113 2.655 5.437 2.655 2.321 0 4.14-.89 5.437-2.655 1.295-1.781 1.942-3.81 1.942-6.856zm7.2-.018c0 2.352-.34 4.131-1.044 6.074-.701 1.941-1.691 3.597-2.968 4.97-1.279 1.371-2.809 2.44-4.61 3.189-1.799.746-4.573 1.174-5.958 1.174-1.388-.017-4.141-.408-5.923-1.174-1.783-.766-3.314-1.818-4.591-3.189-1.279-1.373-2.268-3.029-2.989-4.97-.719-1.943-1.079-3.722-1.079-6.074 0-2.351.323-4.615 1.044-6.538.721-1.924 1.728-3.563 3.024-4.934 1.297-1.372 2.845-2.425 4.608-3.171 1.783-.749 3.746-1.104 5.869-1.104 2.126 0 4.086.372 5.886 1.104 1.803.746 3.352 1.799 4.611 3.171 1.276 1.371 2.267 3.01 2.987 4.934.756 1.923 1.134 4.187 1.134 6.538zm-52.979 0c0 2.92.646 6.162 1.943 7.516 1.296 1.355 2.97 2.031 5.024 2.031 1.117 0 2.178-.159 3.168-.463.99-.303 1.781-.661 2.413-1.086v-17.297c-.504-.107-2.611-.535-4.647-.587-2.556-.073-4.499.962-5.867 2.616-1.351 1.659-2.034 4.562-2.034 7.27zm19.567 13.751c0 4.757-1.224 8.229-3.691 10.439-2.465 2.207-6.228 3.313-11.304 3.313-1.854 0-5.706-.357-8.785-1.032l1.133-5.523c2.575.533 5.978.677 7.761.677 2.824 0 4.842-.57 6.046-1.71 1.208-1.14 1.8-2.831 1.8-5.078v-1.14c-.701.338-1.619.678-2.753 1.035-1.133.338-2.447.516-3.926.516-1.943 0-3.708-.303-5.308-.91-1.603-.604-2.99-1.495-4.124-2.672-1.133-1.175-2.034-2.653-2.664-4.417-.629-1.765-.955-4.916-.955-7.231 0-2.173.343-4.9 1.01-6.718.683-1.815 1.654-3.384 2.97-4.683 1.297-1.3 2.881-2.298 4.736-3.03 1.854-.729 4.029-1.192 6.387-1.192 2.289 0 4.395.284 6.447.624 2.052.338 3.798.693 5.22 1.084z" fill="#5468ff"/></svg>