<svg fill="none" height="250" viewBox="0 0 250 250" width="250" xmlns="http://www.w3.org/2000/svg"><path d="m92.2001 112.835c0 1.83.1999 3.313.5499 4.401.4 1.088.9 2.275 1.6 3.561.25.395.3501.791.3501 1.137 0 .495-.3001.989-.9501 1.484l-3.15 2.077c-.45.296-.9.445-1.3.445-.5 0-1-.248-1.5-.693-.7-.742-1.3-1.533-1.8-2.324-.5-.841-.9999-1.78-1.5499-2.918-3.9 4.55-8.8001 6.825-14.7001 6.825-4.2 0-7.55-1.187-10-3.561-2.45-2.373-3.7-5.538-3.7-9.494 0-4.204 1.5-7.616 4.55-10.187 3.05-2.572 7.1-3.8572 12.25-3.8572 1.7 0 3.45.1483 5.3.3952 1.85.248 3.7501.643 5.7501 1.088v-3.6096c0-3.7582-.8001-6.3791-2.3501-7.9121-1.6-1.533-4.3-2.2747-8.15-2.2747-1.75 0-3.55.1978-5.4.6428-1.85.4451-3.65.989-5.4 1.6814-.8.3461-1.4.5439-1.75.6428s-.6.1484-.8.1484c-.7 0-1.05-.4945-1.05-1.533v-2.4231c0-.7912.1-1.3846.35-1.7307.25-.3462.7-.6924 1.4-1.0385 1.75-.8901 3.85-1.6319 6.3-2.2253 2.45-.6428 5.05-.9395 7.8-.9395 5.95 0 10.3001 1.3351 13.1001 4.0054 2.75 2.6704 4.1499 6.7253 4.1499 12.1649v16.0218zm-20.3001 7.517c1.65 0 3.35-.297 5.15-.89 1.8-.594 3.4-1.682 4.75-3.165.8-.94 1.4-1.978 1.7-3.165s.5-2.621.5-4.302v-2.077c-1.45-.346-3-.643-4.6-.841s-3.1499-.297-4.6999-.297c-3.35 0-5.8001.643-7.4501 1.978-1.65 1.336-2.45 3.215-2.45 5.687 0 2.324.6 4.055 1.85 5.242 1.2 1.236 2.95 1.83 5.25 1.83zm40.15 5.34c-.9 0-1.5-.148-1.9-.494-.4-.297-.75-.989-1.05-1.929l-11.75-38.225c-.3-.9891-.4499-1.6319-.4499-1.9781 0-.7912.3999-1.2362 1.1999-1.2362h4.9c.95 0 1.6.1483 1.95.4945.4.2967.7.989 1 1.9285l8.4 32.7363 7.8-32.7363c.25-.989.55-1.6318.95-1.9285s1.1-.4945 2-.4945h4c.95 0 1.6.1483 2 .4945.4.2967.75.989.95 1.9285l7.9 33.1323 8.65-33.1323c.3-.989.65-1.6318 1-1.9285.4-.2967 1.05-.4945 1.95-.4945h4.65c.8 0 1.25.3956 1.25 1.2362 0 .2473-.05.4945-.1.7912s-.15.6923-.35 1.2363l-12.05 38.2256c-.3.989-.65 1.632-1.05 1.928-.4.297-1.05.495-1.9.495h-4.3c-.95 0-1.6-.149-2-.495s-.75-.989-.95-1.978l-7.75-31.8954-7.7 31.8464c-.25.989-.55 1.632-.95 1.978s-1.1.494-2 .494zm64.25 1.335c-2.6 0-5.2-.296-7.7-.89-2.5-.593-4.45-1.236-5.75-1.978-.8-.445-1.35-.939-1.55-1.384s-.3-.94-.3-1.385v-2.522c0-1.038.4-1.533 1.15-1.533.3 0 .6.05.9.149.3.098.75.296 1.25.494 1.7.742 3.55 1.335 5.5 1.731 2 .395 3.95.593 5.95.593 3.15 0 5.6-.544 7.3-1.632s2.6-2.67 2.6-4.697c0-1.385-.45-2.522-1.35-3.462s-2.6-1.78-5.05-2.571l-7.25-2.226c-3.65-1.137-6.35-2.818-8-5.044-1.65-2.1755-2.5-4.5986-2.5-7.17 0-2.0769.45-3.9066 1.35-5.489s2.1-2.967 3.6-4.055c1.5-1.1373 3.2-1.978 5.2-2.5714s4.1-.8406 6.3-.8406c1.1 0 2.25.0494 3.35.1978 1.15.1483 2.2.3461 3.25.5439 1 .2473 1.95.4945 2.85.7912s1.6.5934 2.1.8901c.7.3956 1.2.7912 1.5 1.2363.3.3956.45.9396.45 1.6319v2.3241c0 1.0385-.4 1.5825-1.15 1.5825-.4 0-1.05-.1978-1.9-.5935-2.85-1.2857-6.05-1.9285-9.6-1.9285-2.85 0-5.1.445-6.65 1.3846s-2.35 2.3736-2.35 4.4011c0 1.3846.5 2.5714 1.5 3.511 1 .9395 2.85 1.8791 5.5 2.7198l7.1 2.2257c3.6 1.137 6.2 2.719 7.75 4.747 1.55 2.027 2.3 4.351 2.3 6.923 0 2.126-.45 4.055-1.3 5.736-.9 1.681-2.1 3.165-3.65 4.352-1.55 1.236-3.4 2.126-5.55 2.769-2.25.692-4.6 1.038-7.15 1.038z" fill="#252f3e"/><g clipRule="evenodd" fill="#f90" fillRule="evenodd"><path d="m185.75 151.06c-16.45 12.017-40.35 18.396-60.9 18.396-28.8 0-54.75-10.533-74.35-28.038-1.55-1.385-.15-3.264 1.7-2.176 21.2 12.165 47.35 19.533 74.4 19.533 18.25 0 38.3-3.759 56.75-11.473 2.75-1.236 5.1 1.78 2.4 3.758z"/><path d="m192.6 143.346c-2.1-2.67-13.9-1.286-19.25-.643-1.6.198-1.85-1.187-.4-2.225 9.4-6.527 24.85-4.648 26.65-2.472 1.8 2.225-.5 17.505-9.3 24.824-1.35 1.137-2.65.544-2.05-.94 2-4.895 6.45-15.923 4.35-18.544z"/></g></svg>