<svg fill="none" height="250" viewBox="0 0 250 250" width="250" xmlns="http://www.w3.org/2000/svg" xmlns:xlink="http://www.w3.org/1999/xlink"><clipPath id="a"><path d="m68 68h113v113h-113z"/></clipPath><g clip-path="url(#a)"><path d="m181 68.0013h-112.9986v112.9987h112.9986z" fill="#00008f"/><path d="m138.024 123.805 42.976-55.805h-6.347l-43.118 55.805z" fill="#ff1721"/><path d="m154.343 148.708c1.97 5.51 6.028 19.85 7.642 20.993h-10.655c-.032-1.268-.2-2.529-.5-3.761-.46-1.639-4.314-14.038-4.314-14.038h-16.924l-2.661 3.772s3.196 10.005 3.395 10.496c.344.884 1.87 3.531 1.87 3.531h-10.211s-.264-1.528-.364-2.165c-.08-.514-.967-3.328-.967-3.328s-2.315 2.536-2.945 3.712c-.637 1.173-.919 1.781-.919 1.781h-7.988s-.267-1.528-.366-2.165c-.078-.514-1.055-3.554-1.055-3.554s-2.237 2.715-2.873 3.889c-.633 1.176-.905 1.83-.905 1.83h-7.9008s2.2325-2.126 3.0131-3.039c1.3157-1.547 6.2187-7.955 6.2187-7.955l-1.966-6.805h-16.7958s-9.5766 12.584-9.9541 12.973c-.3815.384-3.1728 4.39-3.2352 4.826h-4.9829v-3.169c.0618-.067.1274-.131.1965-.191.1539-.113 7.2604-8.934 13.7888-17.633 5.8667-7.585 11.3713-14.962 11.8541-15.665 1.1698-1.699 2.8554-5.368 2.8554-5.368h8.6832s.269 3.375.522 4.194c.225.724 5.516 18.083 5.64 18.27l2.926-3.741-5.001-15.393s-1.171-2.896-1.553-3.33h10.143c-.036.931.076 1.862.331 2.758.413 1.269 2.587 9.115 2.587 9.115s6.918-8.671 7.323-9.294c.491-.777.784-1.663.854-2.579h8.452s-1.548 1.13-4.259 4.56c-.911 1.154-9.836 12.497-9.836 12.497s.779 2.654 1.158 3.976c.104.38.176.637.176.664 0 .012.196-.23.535-.664 2.303-2.918 12.776-16.652 13.411-17.828.512-.949 1.265-2.03 1.707-3.205h8.245s.191 2.462.442 3.143zm-12.547-13c-1.21 2.604-8.336 11.279-8.336 11.279h11.285s-2.188-6.736-2.569-8.255c-.195-.97-.27-1.961-.222-2.95 0-.139-.025-.362-.158-.074zm-43.3612 0c-1.2106 2.604-8.3366 11.279-8.3366 11.279h11.2858s-2.186-6.736-2.5675-8.255c-.1949-.97-.2695-1.961-.222-2.95 0-.139-.0271-.362-.1597-.074zm16.9912 26.304 3.106-4.266c-.286-.308-2.036-5.614-2.036-5.614l-3.003 3.897z" fill="#fff"/></g></svg>