<svg fill="none" height="250" viewBox="0 0 250 250" width="250" xmlns="http://www.w3.org/2000/svg" xmlns:xlink="http://www.w3.org/1999/xlink"><clipPath id="a"><path d="m8 101h235v48h-235z"/></clipPath><g clip-path="url(#a)"><path d="m22.5191 134.45c-2.5446-2.4-4.0414-5.7-4.0414-9.45s1.4968-7.05 3.8917-9.45c2.0956-2.1 2.0956-5.4 0-7.5-2.0955-2.1-5.3885-2.1-7.484 0-4.1911 4.35-6.8854 10.35-6.8854 16.95s2.6943 12.6 7.035 16.95c2.0956 2.1 5.3886 2.1 7.4841 0 1.9459-2.1 1.9459-5.4 0-7.5z" fill="#ffd85f"/><path d="m22.5191 115.55c2.3949-2.55 5.6879-4.05 9.4299-4.05 3.7421 0 7.0351 1.5 9.43 3.9 2.0955 2.1 5.3885 2.1 7.4841 0 2.0955-2.1 2.0955-5.4 0-7.5-4.3408-4.2-10.3281-6.9-16.9141-6.9-6.5859 0-12.5732 2.7-16.914 7.05-2.0955 2.1-2.0955 5.4 0 7.5 2.0956 1.95 5.3886 1.95 7.4841 0z" fill="#3bb4e7"/><path d="m41.379 134.45c-2.3949 2.55-5.6879 4.05-9.43 4.05-3.742 0-7.035-1.5-9.4299-3.9-2.0955-2.1-5.3885-2.1-7.4841 0-2.0955 2.1-2.0955 5.4 0 7.5 4.3408 4.2 10.3281 6.9 16.914 6.9 6.586 0 12.5733-2.7 16.9141-7.05 2.0955-2.1 2.0955-5.4 0-7.5-2.0956-1.95-5.3886-1.95-7.4841 0z" fill="#ed5c68"/><path d="m18.7771 117.05c2.8933 0 5.2388-2.35 5.2388-5.25 0-2.899-2.3455-5.25-5.2388-5.25-2.8934 0-5.2389 2.351-5.2389 5.25 0 2.9 2.3455 5.25 5.2389 5.25z" fill="#308bc5"/><path d="m18.7771 143.45c2.8933 0 5.2388-2.351 5.2388-5.25 0-2.9-2.3455-5.25-5.2388-5.25-2.8934 0-5.2389 2.35-5.2389 5.25 0 2.899 2.3455 5.25 5.2389 5.25z" fill="#d5465f"/><path clipRule="evenodd" d="m72.3631 129.95c1.4968-1.2 1.7961-.45 2.9936.75.5987.6 2.3949 1.8 1.1974 2.7-2.3949 1.95-4.4904 2.85-7.6337 2.85-6.8854 0-11.8249-5.25-11.5255-12 .1497-3.15 1.3471-6 3.742-7.95 2.2453-1.8 4.9395-2.7 7.7835-2.55 1.4968 0 2.6943.3 4.0414.75.8981.3 1.7962.75 2.5446 1.35 1.4968 1.2.7484 1.8-.2994 3-.2994.3-.449.6-.7484.75-.5987.6-1.0478 1.05-1.7962.45-1.4968-1.05-3.5923-1.65-5.3885-1.2-5.9873 1.5-5.6879 12.15 1.6465 12.15 1.1974.15 2.5446-.3 3.4427-1.05zm166.2959 5.85c-1.048 0-1.796-.75-1.796-1.8v-23.55c0-1.05.748-1.8 1.796-1.8h1.946c1.048 0 1.796.75 1.796 1.8v23.55c0 1.05-.748 1.8-1.796 1.8zm-10.328-2.7c-2.095 1.95-4.191 3-7.185 3-6.136 0-8.98-5.1-8.98-10.65v-9.6c0-1.05.748-1.8 1.796-1.8h1.946c1.047 0 1.796.75 1.796 1.8v9.6c0 3.15 1.646 5.55 5.089 5.55 3.293 0 5.389-2.85 5.389-5.85v-9.3c0-1.05.748-1.8 1.796-1.8h1.946c1.047 0 1.796.75 1.796 1.8v18.15c0 1.05-.749 1.8-1.796 1.8h-1.647c-1.048 0-1.646-.9-1.796-1.8zm-23.35-18.9h3.742c1.048 0 1.796.9 1.796 1.8v1.2c0 1.05-.748 1.8-1.796 1.8h-3.742v15c0 1.05-.749 1.8-1.796 1.8h-1.946c-1.048 0-1.796-.75-1.796-1.8v-20.55c0-4.5 2.544-8.1 7.184-8.55h2.844c1.048 0 1.797.9 1.797 1.8v1.2c0 1.05-.749 1.8-1.797 1.8h-1.496c-2.246 0-3.144 1.65-3.144 3.75v.75zm-13.621 0h4.191c1.048 0 1.796.75 1.796 1.8v1.2c0 1.05-.748 1.8-1.796 1.8h-4.191v9.15c0 1.8.898 2.7 2.694 2.7h.898c1.048 0 1.796.75 1.796 1.8v1.35c0 1.05-.748 1.8-1.796 1.8h-2.544c-4.491-.3-6.437-3.15-6.437-7.65v-17.7c0-1.05.749-1.8 1.797-1.8h1.945c1.048 0 1.797.75 1.797 1.8v3.75zm-60.022 0h4.191c1.047 0 1.796.75 1.796 1.8v1.2c0 1.05-.749 1.8-1.796 1.8h-4.191v9.15c0 1.8.898 2.85 2.694 2.85h.898c1.048 0 1.796.75 1.796 1.8v1.2c0 1.05-.748 1.8-1.796 1.8h-1.198c-4.939 0-7.783-2.1-7.783-7.65v-17.7c0-1.05.748-1.8 1.796-1.8h1.946c1.048 0 1.796.75 1.796 1.8v3.75zm-24.399 2.55c1.946-1.95 4.192-3 6.886-3 6.137 0 9.28 4.95 9.28 10.65v9.6c0 1.05-.748 1.8-1.796 1.8h-1.946c-1.048 0-1.796-.75-1.796-1.8v-9.6c0-3.15-1.647-5.55-5.089-5.55-3.293 0-5.389 2.7-5.389 5.85v9.3c0 1.05-.748 1.8-1.796 1.8h-1.946c-1.048 0-1.796-.75-1.796-1.8v-18.15c0-1.05.748-1.8 1.796-1.8h1.647c1.047 0 1.646.9 1.796 1.8zm60.172 0c1.946-1.95 4.192-3 6.886-3 6.137 0 9.28 4.95 9.28 10.65v9.6c0 1.05-.748 1.8-1.796 1.8h-1.946c-1.048 0-1.796-.75-1.796-1.8v-9.6c0-3.15-1.647-5.55-5.089-5.55-3.293 0-5.389 2.7-5.389 5.85v9.3c0 1.05-.748 1.8-1.796 1.8h-1.946c-1.048 0-1.796-.75-1.796-1.8v-18.15c0-1.05.748-1.8 1.796-1.8h1.647c1.047 0 1.646.9 1.796 1.8zm-78.5823-3.15c-6.586 0-11.2262 4.8-11.2262 11.4s4.6402 11.4 11.2262 11.4c6.7356 0 11.3758-4.65 11.3758-11.4 0-6.6-4.7899-11.4-11.3758-11.4zm54.7833 13.35c.449 3 3.443 4.35 6.287 4.35 1.347 0 2.844-.3 4.041-.9.15-.15.449-.15.599-.3.748-.45 1.347-.6 1.946 0l1.047 1.05.899.9c.898 1.2.299 1.5-.749 2.1-2.245 1.5-5.089 2.25-7.783 2.25-7.185 0-11.975-4.35-11.975-11.55 0-6.9 4.79-11.4 11.526-11.4 7.035 0 10.926 4.05 11.076 11.1 0 1.95.15 2.55-1.796 2.55h-15.118zm-54.7833-8.25c3.4426 0 5.6879 3 5.6879 6.3 0 3.45-2.0956 6.15-5.6879 6.15-3.5924 0-5.6879-2.7-5.6879-6.15s2.2452-6.3 5.6879-6.3zm54.9333 3.6h11.226c-.449-2.85-2.694-3.9-5.389-3.9-2.844 0-5.089 1.35-5.837 3.9z" fill="#2a3039" fillRule="evenodd"/></g></svg>