<svg fill="none" height="250" viewBox="0 0 250 250" width="250" xmlns="http://www.w3.org/2000/svg" xmlns:xlink="http://www.w3.org/1999/xlink"><clipPath id="a"><path d="m20 79h210v92h-210z"/></clipPath><g clip-path="url(#a)"><path d="m34.0637 128.545c-4.6723.467-7.7409.7-9.2046.7-1.9626 0-3.4111-.481-4.3452-1.447-.3425-.343-.5139-.794-.5139-1.355 0-.467.0935-.934.2803-1.401.2182-.498.8874-1.059 2.0088-1.682.7477-.436 1.3858-.871 1.916-1.308.9028-.716 1.557-1.074 1.962-1.074.1242 0 .4361.109.9346.327.5291.249.8877.358 1.0748.327 4.142-.467 6.2911-.763 6.4472-.888.2492-.155.4363-1.043.5609-2.662l1.9156-21.6287c0-1.6817.0388-2.7638.1171-3.2467.0774-.4825.3188-1.0514.7242-1.7048.8713-1.4323 1.8841-2.6315 3.0368-3.5974.8717-.7158 1.6355-1.0742 2.2891-1.0742.8101 0 1.5576.3738 2.2429 1.1209.6542.717.9813 1.4643.9813 2.2426 0 .4981-.1561 1.4175-.4671 2.7557-.1253.6234-.2804 1.9622-.4674 4.0173-.0627.5923-.2497 2.1336-.5607 4.6253l-2.1958 18.078 25.417-2.056.7943-16.676c.4352-9.2801 1.1216-14.8391 2.055-16.6771.5609-1.0897 1.5109-2.226 2.8504-3.41.997-.9346 1.9159-1.4017 2.7569-1.4017 1.7758 0 2.6636 1.1997 2.6636 3.5974 0 1.1834-.6542 6.2125-1.9626 15.0882-.6542 4.5472-1.0435 11.0402-1.1681 19.4792 1.838.811 2.7568 1.9 2.7568 3.27 0 .624-.1713 1.106-.5139 1.449-.0935.093-.436.296-1.028.607-.9035.467-1.3552 1.526-1.3552 3.176 0 .157.1246 1.526.3738 4.111.1247 1.588.3583 2.569.701 2.943l1.1681 1.355c.1247.124.1871.296.1871.513 0 .468-.2571 1.27-.771 2.406-.5142 1.137-1.0827 2.157-1.7056 3.061-1.1215 1.587-2.2429 2.381-3.3645 2.381-1.4017 0-2.4141-.778-3.0364-2.335-.7475-1.931-1.1681-4.812-1.2614-8.643l-.1403-5.558c0-.684-.6853-1.028-2.0559-1.028h-.4665l-21.6801 2.009c-.8722.093-1.4481.265-1.7284.514-.187.187-.2803.56-.2803 1.12v4.766c0 3.456.4204 6.182 1.261 8.174.0935.219.5609.904 1.4019 2.056.187.248.2803.575.2803.981 0 .871-.4832 2.07-1.4484 3.596-.7789 1.184-1.4798 2.009-2.1023 2.476-.4985.343-1.1527.514-1.9626.514-1.7134 0-3.1303-1.464-4.2517-4.391-.8106-2.18-1.1994-5.215-1.1677-9.109zm49.8535-2.102.84-9.623.1403-1.355-.0936-3.97c0-1.837.4974-3.487 1.4953-4.952 1.2451-1.805 2.6781-2.709 4.298-2.709 1.5576 0 2.3365 1.433 2.3365 4.297 0 1.246-.4052 3.567-1.2149 6.961-.8102 3.27-1.2151 6.556-1.2151 9.856 0 5.575.5452 8.876 1.6355 9.904.5296.56 1.1681.841 1.9158.841 1.6512 0 3.3957-2.041 5.2335-6.12 1.5255-3.363 2.4915-7.63 2.8975-12.8.154-1.93.528-3.332 1.12-4.204.965-1.401 2.196-2.46 3.691-3.176.654-.343 1.183-.514 1.588-.514 1.371 0 2.057 2.04 2.057 6.119 0 .935-.032 1.635-.094 2.102l-.561 5.326c-.249 1.931-.373 3.193-.373 3.784 0 .965.14 2.305.42 4.017.405 2.305.903 3.768 1.495 4.391.281.28.686.42 1.215.42h.514c.53-.062.873-.093 1.028-.093.249 0 .467.125.654.374.53.716.795 1.697.795 2.943 0 1.869-.53 3.348-1.589 4.437-.966.967-2.149 1.449-3.551 1.449-.873 0-1.667-.234-2.383-.701-2.119-1.369-3.489-3.285-4.112-5.745-.373-1.402-.857-2.103-1.448-2.103-.592 0-1.34.904-2.242 2.71-.6853 1.401-1.9469 2.663-3.7849 3.783-2.1494 1.308-4.1121 1.962-5.8876 1.962-2.0873 0-3.8163-1.308-5.1858-3.923-1.1838-2.274-1.7747-5.637-1.7747-10.091 0-1.308.0467-2.506.1402-3.597zm60.5518 1.355 4.531-8.269c1.277-2.335 2.492-4.328 3.644-5.979 1.589-2.21 3.271-3.317 5.047-3.317 2.087 0 3.38 1.168 3.878 3.504.403 1.962.59 3.722.561 5.279l-.187 12.846c-.031 2.18.31 3.924 1.028 5.232.343.623.777 1.028 1.308 1.215.061.031.497.124 1.307.28.28.093.421.405.421.934 0 1.62-.593 2.975-1.774 4.064-.966.871-2.197 1.308-3.692 1.308-3.426 0-5.14-4.126-5.14-12.379v-.654l.14-8.222c0-.996-.42-1.494-1.261-1.494-.748 0-1.48.919-2.196 2.756l-3.412 8.829c-.467 1.276-.825 2.304-1.074 3.083-.779 2.336-1.418 3.846-1.914 4.531-1.373 1.745-2.975 2.616-4.813 2.616-.779 0-1.355-.172-1.729-.514-1.215-1.058-1.76-2.755-1.636-5.092v-.373l.328-11.212c-.219-3.3-.374-5.154-.468-5.559-.124-.467-.389-.716-.794-.747-.187-.031-.545.28-1.075.934s-1.012 1.371-1.448 2.149l-1.589 2.99c-1.059 1.961-1.932 4.64-2.615 8.034-.841 4.018-1.526 6.447-2.056 7.287-.436.654-1.137 1.271-2.103 1.846s-1.807.864-2.524.864c-1.027 0-1.884-.809-2.569-2.429-.467-1.058-.67-2.071-.607-3.036l1.168-17.331.514-5.839c0-.498-.157-2.009-.467-4.532-.126-.841-.187-1.634-.187-2.382 0-1.525.591-2.927 1.776-4.204 1.089-1.215 2.242-1.822 3.457-1.822 2.118 0 3.178 1.386 3.178 4.158 0 1.931-.452 5.434-1.356 10.51l-.467 3.831c-.062.404-.094.731-.094.981 0 .623.125.918.375.887.124-.03.576-.607 1.355-1.728l4.11-5.933c2.398-3.457 4.594-5.185 6.588-5.185 1.028 0 1.932.467 2.711 1.401.996 1.246 1.51 2.617 1.542 4.111zm53.31 7.708h1.075c1.059 0 1.589.592 1.589 1.775 0 1.371-.499 2.772-1.495 4.205-1.153 1.619-2.493 2.428-4.019 2.428-.966 0-1.807-.311-2.524-.934-.155-.124-.887-1.136-2.196-3.036-.404-.623-.809-.935-1.213-.935-.438 0-1.061.468-1.869 1.402-2.679 3.021-5.513 4.531-8.504 4.531-2.523 0-4.657-.904-6.402-2.71-2.866-2.896-4.297-7.52-4.297-13.874 0-8.532 2.243-15.851 6.727-21.955 1.495-2.024 3.146-3.705 4.953-5.045 2.025-1.4947 3.879-2.2423 5.561-2.2423 1.898 0 3.938.9973 6.119 2.9893 1.745 1.62 3.146 4.376 4.206 8.269 1.215 4.484 1.822 7.49 1.822 9.015 0 .81-.281 2.321-.841 4.531-.499 2.056-.748 3.848-.748 5.372 0 4.143.686 6.214 2.056 6.214zm-15.091-28.029c-1.682 0-3.24 1.278-4.673 3.831-2.18 3.924-3.27 8.782-3.27 14.575 0 7.287 1.666 10.931 4.999 10.931 1.807 0 3.365-.81 4.673-2.429 1.338-1.651 2.399-3.551 3.178-5.7.374-1.089.56-1.711.56-1.868l-.186-3.083c0-.094.28-.654.841-1.682.496-.902.745-1.744.745-2.523 0-.435-.218-1.587-.652-3.456-.748-3.177-1.682-5.388-2.804-6.633-1.152-1.309-2.289-1.963-3.411-1.963zm25.369 21.675 4.253-7.287c3.084-5.325 5.776-7.988 8.083-7.988 2.522 0 3.815 2.289 3.877 6.867l.093 12.379c.032 2.492.904 3.878 2.617 4.158.997.187 1.496.607 1.496 1.261 0 1.932-.779 3.536-2.337 4.811-.747.622-1.698.935-2.85.935-1.4 0-2.446-.654-3.129-1.963-.685-1.244-1.122-2.864-1.308-4.857-.094-1.215-.141-3.566-.141-7.055 0-4.047-.124-6.368-.373-6.959-.158-.343-.359-.514-.608-.514-.436 0-.997.397-1.682 1.191-.686.794-1.293 1.736-1.823 2.826-1.993 4.174-3.271 7.365-3.831 9.576-.966 3.613-1.885 5.778-2.757 6.493-.779.624-1.729.935-2.85.935-.873 0-1.494-.172-1.868-.514-.812-.841-1.215-2.584-1.215-5.232 0-.56.03-1.168.094-1.822l2.056-21.021c-.468-.529-.701-.981-.701-1.354 0-1.526.87-3.099 2.615-4.718.997-.965 2.025-1.449 3.084-1.449 1.371 0 2.056.764 2.056 2.289 0 1.059-.078 2.243-.234 3.551-.062.405-.483 1.884-1.262 4.437zm-127.5432 33.063c0-4.541 1.6607-6.813 4.9822-6.813 1.0437 0 2.1135.166 3.2116.494l.5355.165v2.985h-2.1407v-1.524c-.4946-.109-.9618-.177-1.3998-.205h-.2066c-.9326 0-1.6333.363-2.0996 1.091-.4663.727-.7001 1.996-.7001 3.807.0272 2.141.2747 3.555.7418 4.24.2462.358.5276.601.8432.732.3154.13.7203.194 1.2147.194 1.1255.028 2.2508-.136 3.3763-.494l.3708 1.791c-.4526.152-1.0679.292-1.8428.422-.7749.131-1.4173.196-1.9245.196-1.6747.027-2.9196-.511-3.7374-1.616-.8158-1.104-1.2246-2.926-1.2246-5.465zm22.8732 7.081c-1.674 0-2.869-.576-3.5824-1.73-.7147-1.152-1.0709-2.919-1.0709-5.299 0-2.381.3671-4.12 1.102-5.218.7343-1.098 1.9273-1.647 3.5823-1.647 1.653 0 2.83.543 3.53 1.626.7 1.085 1.049 2.845 1.049 5.281 0 2.435-.349 4.208-1.049 5.32-.7 1.111-1.887 1.667-3.561 1.667zm-.041-1.935c.96 0 1.612-.353 1.955-1.06.342-.707.515-2.048.515-4.024 0-1.975-.169-3.293-.504-3.952-.336-.659-.968-.988-1.894-.988-.927 0-1.575.357-1.946 1.071-.371.713-.556 1.985-.556 3.817 0 1.833.165 3.147.495 3.942.329.796.973 1.194 1.935 1.194zm14.184 1.73v-13.483h3.212c1.083 0 1.959.09 2.625.267.665.179 1.231.516 1.698 1.009.467.494.796 1.177.989 2.048.191.871.289 2.107.289 3.705 0 1.599-.197 2.885-.589 3.86-.39.974-.977 1.649-1.76 2.027-.782.378-1.88.567-3.293.567zm5.806-2.739c.315-.357.531-.847.648-1.471s.175-1.475.175-2.553c0-1.077-.048-1.924-.144-2.542-.096-.617-.299-1.108-.607-1.472-.31-.363-.69-.596-1.143-.699s-1.098-.154-1.935-.154h-.659v9.776h.618c.796 0 1.423-.058 1.883-.175.46-.116.848-.352 1.164-.71zm13.176 2.739v-13.483h7.885v1.935h-5.744v3.745h5.187v1.854h-5.187v4.014h5.806v1.935zm22.4-4.921c-.742.043-1.155.062-1.237.062h-.967v4.859h-2.142v-13.483h4.242c1.496 0 2.629.333 3.396.999.769.666 1.154 1.773 1.154 3.323 0 1.785-.769 3.04-2.307 3.767.949 1.798 1.743 3.595 2.389 5.394h-2.305c-.619-1.661-1.359-3.301-2.223-4.921zm-.516-6.668h-1.688v4.754h1.709c1.838 0 2.759-.775 2.759-2.326 0-.864-.22-1.485-.66-1.862-.438-.378-1.145-.566-2.12-.566zm14.802 1.708c0-2.539 1.523-3.808 4.57-3.808 1.071 0 2.292.24 3.665.72l-.474 1.874c-1.399-.439-2.502-.662-3.304-.669-.802-.008-1.382.127-1.738.401-.359.275-.536.755-.536 1.441 0 .467.199.861.596 1.183.399.323 1.071.608 2.019.855 1.441.384 2.428.878 2.963 1.481.536.605.804 1.503.804 2.697 0 2.594-1.551 3.891-4.653 3.891-1.03 0-2.327-.221-3.892-.66l.432-1.955c0 .014.214.076.639.185 1.332.344 2.363.515 3.1.515.734 0 1.283-.185 1.647-.556.362-.37.545-.837.545-1.399 0-.563-.156-.995-.464-1.297-.309-.302-.876-.569-1.697-.803-1.484-.411-2.557-.92-3.223-1.523-.665-.604-.999-1.462-.999-2.573z" fill="#262626"/></g></svg>