<svg fill="none" height="250" viewBox="0 0 250 250" width="250" xmlns="http://www.w3.org/2000/svg"><g fill="#343433"><path d="m23.9738 93.3954c-4.611 1.9183-9.68 7.3306-11.281 14.1296-2.0276 8.612 6.4099 12.254 7.1019 11.061.8145-1.403-1.5118-1.877-1.9907-6.346-.6189-5.771 2.0829-12.22 5.4835-15.0495.6317-.5257.6018.206.6018 1.5594 0 2.4201-.1346 24.1471-.1346 28.6811 0 6.135-.2552 8.073-.7137 9.987-.4641 1.941-1.2107 3.251-.6454 3.756.6322.565 3.3309-.778 4.8932-2.944 1.8732-2.596 2.5288-5.715 2.6467-9.102.1422-4.083.1362-10.562.1422-14.257.0053-3.389.0573-13.313-.0599-19.2794-.0288-1.4634-4.1154-2.9987-6.044-2.1962z"/><path d="m187.711 122.109c-.149 3.19-.86 5.683-1.743 7.442-1.708 3.404-5.252 4.461-6.758-.433-.82-2.667-.858-7.123-.268-10.846.6-3.792 2.276-6.656 5.051-6.398 2.738.255 4.019 3.758 3.718 10.235zm-46.149 19.79c-.037 5.3-.877 9.947-2.678 11.296-2.555 1.914-5.989.479-5.278-3.389.629-3.422 3.605-6.917 7.963-11.187 0 0 .009.973-.007 3.28zm-.698-19.821c-.156 2.905-.915 5.824-1.742 7.473-1.708 3.404-5.278 4.468-6.758-.433-1.012-3.348-.769-7.682-.269-10.413.65-3.544 2.224-6.831 5.052-6.831 2.749 0 4.105 2.996 3.717 10.204zm-26.734-.044c-.167 3.077-.772 5.649-1.742 7.517-1.754 3.381-5.226 4.453-6.758-.433-1.103-3.523-.728-8.326-.268-10.921.681-3.851 2.387-6.581 5.051-6.323 2.736.266 4.067 3.758 3.717 10.16zm122.514 3.594c-.669 0-.974.685-1.227 1.837-.876 4.008-1.796 4.912-2.984 4.912-1.326 0-2.518-1.984-2.824-5.956-.241-3.124-.202-8.874.106-14.595.063-1.175-.264-2.338-3.438-3.483-1.366-.492-3.351-1.218-4.34 1.152-2.793 6.695-3.886 12.011-4.143 14.169-.013.112-.151.135-.176-.126-.163-1.729-.53-4.872-.575-11.475-.009-1.288-.284-2.385-1.716-3.282-.929-.583-3.75-1.613-4.766-.387-.88 1.002-1.899 3.7-2.958 6.898-.861 2.599-1.461 4.357-1.461 4.357s.012-7.013.022-9.673c.005-1.004-.689-1.338-.898-1.399-.94-.27-2.794-.723-3.581-.723-.97 0-1.208.538-1.208 1.323 0 .103-.153 9.233-.153 15.618 0 .277 0 .58.001.901-.537 2.935-2.278 6.918-4.172 6.918-1.896 0-2.79-1.665-2.79-9.276 0-4.44.134-6.371.2-9.583.038-1.849.112-3.27.108-3.592-.014-.989-1.735-1.487-2.536-1.671-.805-.185-1.504-.258-2.05-.227-.773.044-1.32.547-1.32 1.24 0 .371.005 1.077.005 1.077-.996-1.553-2.597-2.635-3.662-2.948-2.869-.846-5.863-.096-8.121 3.042-1.794 2.493-2.876 5.317-3.302 9.374-.311 2.966-.21 5.974.343 8.518-.668 2.87-1.909 4.046-3.268 4.046-1.973 0-3.403-3.198-3.237-8.729.109-3.638.842-6.191 1.643-9.884.342-1.575.065-2.399-.632-3.189-.638-.725-1.999-1.095-3.955-.639-1.393.324-3.385.673-5.207.941 0 0 .11-.435.2-1.204.474-4.028-3.934-3.701-5.341-2.415-.839.769-1.411 1.675-1.627 3.304-.344 2.585 1.779 3.804 1.779 3.804-.697 3.167-2.404 7.304-4.167 10.294-.944 1.603-1.667 2.79-2.599 4.052-.004-.47-.006-.94-.008-1.408-.021-6.657.068-11.896.108-13.785.038-1.85.113-3.233.108-3.555-.01-.723-.435-.996-1.32-1.342-.782-.306-1.706-.517-2.665-.591-1.21-.094-1.94.544-1.921 1.298.004.142.004 1.016.004 1.016-.995-1.553-2.596-2.635-3.661-2.948-2.869-.846-5.863-.096-8.121 3.042-1.794 2.493-2.97 5.992-3.303 9.343-.31 3.124-.252 5.778.17 8.014-.456 2.24-1.767 4.581-3.25 4.581-1.896 0-2.975-1.665-2.975-9.276 0-4.44.134-6.371.2-9.582.038-1.85.112-3.271.108-3.593-.014-.988-1.735-1.487-2.536-1.671-.838-.193-1.562-.263-2.117-.222-.733.054-1.248.705-1.248 1.192v1.12c-.996-1.553-2.597-2.635-3.662-2.948-2.869-.846-5.846-.084-8.121 3.042-1.483 2.038-2.6841 4.297-3.3021 9.299-.1786 1.445-.2575 2.799-.2473 4.064-.5915 3.593-3.2042 7.733-5.3413 7.733-1.2506 0-2.4416-2.409-2.4416-7.543 0-6.838.4262-16.575.4982-17.513 0 0 2.7003-.046 3.2232-.052 1.3469-.014 2.5667.017 4.3607-.074.9002-.045 1.7662-3.252.838-3.649-.4209-.18-3.3957-.337-4.575-.362-.9915-.022-3.7521-.225-3.7521-.225s.2476-6.463.3053-7.1458c.0489-.569-.6924-.8619-1.1175-1.0397-1.0337-.4342-1.9586-.642-3.0548-.8665-1.5145-.3103-2.2016-.0068-2.3359 1.2627-.2021 1.9265-.3067 7.5693-.3067 7.5693-1.1114 0-4.9079-.216-6.0197-.216-1.033 0-2.1478 4.412-.7197 4.466 1.643.063 4.5063.118 6.4046.175 0 0-.0846 9.897-.0846 12.953 0 .325.0015.638.0034.942-1.0447 5.407-4.7244 8.328-4.7244 8.328.7903-3.577-.824-6.264-3.7316-8.538-1.0713-.838-3.186-2.424-5.5522-4.163 0 0 1.3704-1.341 2.5857-4.04.8612-1.912.8983-4.099-1.2153-4.581-3.4924-.798-6.372 1.749-7.2309 4.469-.6655 2.106-.3105 3.669.9931 5.293.0952.119.1984.24.3049.362-.7883 1.509-1.8713 3.54-2.7886 5.116-2.5459 4.374-4.4692 7.834-5.9226 7.834-1.1619 0-1.1463-3.513-1.1463-6.802 0-2.835.2108-7.098.3792-11.511.0557-1.46-.6792-2.291-1.9112-3.044-.7485-.458-2.346-1.358-3.2713-1.358-1.3848 0-5.3804.187-9.1556 11.032-.4759 1.367-1.4106 3.858-1.4106 3.858l.0807-13.041c0-.306-.1642-.602-.5396-.804-.6363-.343-2.3354-1.045-3.8461-1.045-.7198 0-1.0792.333-1.0792.996l-.1316 20.403c0 1.551.0406 3.359.1949 4.15.1539.792.4031 1.436.7114 1.82.3082.382.6647.674 1.2521.795.5468.111 3.5416.493 3.6971-.643.1866-1.362.1938-2.835 1.7663-8.33 2.4481-8.554 5.6394-12.727 7.1402-14.209.2624-.259.562-.275.5476.149-.0641 1.876-.2893 6.562-.441 10.543-.4065 10.654 1.5452 12.629 4.3342 12.629 2.1337 0 5.1415-2.106 8.3658-7.436 2.0101-3.321 3.9618-6.578 5.3641-8.925.9772.899 2.0738 1.865 3.1697 2.898 2.5466 2.401 3.3828 4.682 2.828 6.845-.4243 1.655-2.0223 3.359-4.8662 1.702-.8289-.483-1.1827-.857-2.0162-1.402-.4478-.292-1.1315-.38-1.5414-.073-1.0648.797-1.6738 1.811-2.0215 3.067-.3382 1.221.8938 1.867 2.1709 2.432 1.0997.486 3.4632.927 4.9705.977 5.8729.195 10.5776-2.816 13.8527-10.583.5862 6.708 3.0813 10.504 7.4163 10.504 2.8982 0 5.804-3.721 7.0746-7.381.3648 1.492.9043 2.79 1.6023 3.887 3.34 5.256 9.82 4.125 13.075-.338 1.007-1.379 1.16-1.875 1.16-1.875.475 4.214 3.892 5.687 5.849 5.687 2.191 0 4.454-1.029 6.039-4.575.186.385.389.753.61 1.101 3.341 5.256 9.821 4.125 13.076-.338.153-.21.286-.4.403-.57l.095 2.768s-1.856 1.692-2.996 2.729c-5.023 4.572-8.839 8.04-9.12 12.079-.357 5.149 3.845 7.063 7.03 7.313 3.376.267 6.271-1.587 8.049-4.181 1.564-2.283 2.588-7.197 2.513-12.05-.03-1.944-.08-4.415-.118-7.063 1.763-2.034 3.75-4.604 5.579-7.612 1.993-3.279 4.13-7.682 5.224-11.108 0 0 1.856.016 3.837-.113.633-.041.815.087.698.548-.141.558-2.503 9.602-.348 15.627 1.476 4.125 4.801 5.452 6.772 5.452 2.308 0 4.516-1.731 5.699-4.301.142.287.291.564.454.82 3.34 5.256 9.798 4.118 13.075-.338.74-1.006 1.16-1.875 1.16-1.875.703 4.361 4.119 5.709 6.075 5.709 2.038 0 3.972-.83 5.541-4.517.065 1.624.168 2.951.332 3.369.099.256.678.578 1.099.733 1.864.686 3.766.362 4.469.221.487-.098.867-.487.919-1.489.137-2.632.053-7.055.856-10.342 1.349-5.516 2.607-7.656 3.204-8.715.334-.593.711-.691.725-.063.028 1.271.092 5.003.614 10.017.384 3.688.897 5.868 1.291 6.558 1.124 1.973 2.512 2.066 3.643 2.066.72 0 2.224-.197 2.089-1.453-.065-.611.05-4.393 1.379-9.828.869-3.549 2.316-6.755 2.839-7.927.192-.433.282-.092.279-.026-.11 2.444-.357 10.438.645 14.81 1.36 5.923 5.291 6.586 6.661 6.586 2.925 0 5.317-2.21 6.122-8.023.195-1.399-.093-2.479-.954-2.479z"/></g></svg>