<svg fill="none" height="250" viewBox="0 0 250 250" width="250" xmlns="http://www.w3.org/2000/svg"><path d="m47.9469 160c19.3007 0 34.9469-15.67 34.9469-35s-15.6462-35-34.9469-35c-19.3006 0-34.9469 15.67-34.9469 35s15.6463 35 34.9469 35z" fill="#fd1015"/><path d="m29.4336 133.917c-.0299.204-.205.36-.4165.36-.0057 0-.0114 0-.0171 0h-1.2632c-.2325 0-.421-.189-.421-.422v-.843c0-.233.1885-.422.421-.422v-5.482c0-.232.1886-.421.4211-.421h32.4256c2.2504 0 4.2716.983 5.659 2.543.1045.118.2359.282.3943.493.159.212.4085.337.6733.337h.4429 1.2498c.4638.002.8393.379.8393.844v2.53c0 .466-.377.843-.8421.843h-2.9474c-.0056 0-.0112 0-.0169 0-.2325 0-.421-.189-.421-.422-.2144-2.597-2.387-4.638-5.0357-4.638s-4.8214 2.041-5.0354 4.638c-.0001.233-.1886.422-.4211.422-.0058 0-.0115 0-.0172 0h-15.1579c-.2326 0-.4211-.189-.4211-.422h-.0173c-.2139-2.597-2.3866-4.638-5.0353-4.638s-4.8214 2.041-5.0353 4.638c-.0003.001-.0003.002-.0003.003-.0016.02-.0031.04-.0045.059zm39.5664-5.965c0 .233-.1885.421-.421.421h-.6621c-.1202 0-.2347-.051-.3145-.141-.2763-.311-.4949-.543-.6561-.695-1.659-1.573-3.8985-2.537-6.3628-2.537h-32.4256c-.2325 0-.4211-.189-.4211-.422v-9.81c0-1.892 1.3921-3.495 3.2634-3.758 5.6532-.794 10.9754-1.191 15.9665-1.191 8.9114 0 12.3762.711 15.7175 2.53 2.0347 1.109 3.9673 3.784 5.7979 8.028.3417.792.5179 1.646.5179 2.509zm-41.2632-2.53v.843zm2.5264-10.964c-.2326 0-.4211.189-.4211.422v6.325c0 .233.1885.422.4211.422h6.3158c.2325 0 .421-.189.421-.422v-6.325c0-.233-.1885-.422-.421-.422zm17.6842 0c-.2326 0-.4211.189-.4211.422v6.325c0 .233.1885.422.4211.422h6.3158c.2325 0 .421-.189.421-.422v-6.325c0-.233-.1885-.422-.421-.422zm-8.8421 0c-.2326 0-.4211.189-.4211.422v6.325c0 .233.1885.422.4211.422h6.3158c.2325 0 .421-.189.421-.422v-6.325c0-.233-.1885-.422-.421-.422zm17.6842 0c-.2326 0-.4211.189-.4211.422v6.325c0 .233.1885.422.4211.422h9.7095c.0516 0 .1027-.01.1509-.029.2171-.083.3255-.327.2421-.544-.4614-1.204-.9948-2.311-1.6001-3.322-.0909-.151-.1746-.302-.2509-.451-.8859-1.733-2.6661-2.823-4.6099-2.823zm-22.3158 23.193c-1.8603 0-3.3684-1.511-3.3684-3.374s1.5081-3.373 3.3684-3.373 3.3684 1.51 3.3684 3.373-1.5081 3.374-3.3684 3.374zm0-1.687c.9302 0 1.6842-.755 1.6842-1.687 0-.931-.754-1.687-1.6842-1.687s-1.6842.756-1.6842 1.687c0 .932.754 1.687 1.6842 1.687zm26.1053 1.687c-1.8604 0-3.3685-1.511-3.3685-3.374s1.5081-3.373 3.3685-3.373c1.8603 0 3.3684 1.51 3.3684 3.373s-1.5081 3.374-3.3684 3.374zm0-1.687c.9301 0 1.6842-.755 1.6842-1.687 0-.931-.7541-1.687-1.6842-1.687-.9302 0-1.6843.756-1.6843 1.687 0 .932.7541 1.687 1.6843 1.687z" fill="#fff"/><path d="m104.792 123.697h9.154c-.788-1.746-2.541-2.961-4.577-2.961s-3.789 1.215-4.577 2.961zm13.82 3.848c-.102.177-.293.296-.512.296h-13.308c.788 1.746 2.541 2.96 4.577 2.96.977 0 1.889-.279 2.66-.763.172-.108.389-.276.651-.505.208-.182.49-.256.76-.2l3.464.715c.32.066.525.379.46.7-.015.07-.042.137-.081.198-.035.056-.068.106-.098.15-.857 1.262-2.011 2.305-3.361 3.03-1.327.712-2.844 1.116-4.455 1.116-5.219 0-9.4506-4.241-9.4506-9.473s4.2316-9.473 9.4506-9.473c5.22 0 9.451 4.241 9.451 9.473 0 .607-.057 1.201-.166 1.776zm-25.191 6.491v-24.617c0-.292.2045-.543.4893-.601l3.2051-.659c.3313-.069.6551.145.7231.477.0084.041.0126.082.0126.123v25.277c0 .339-.2742.614-.6125.614h-3.2051c-.3383 0-.6125-.275-.6125-.614zm44.022.614h-3.556c-.262 0-.495-.167-.58-.415l-5.645-16.535c-.11-.321.061-.669.381-.779.064-.022.131-.033.198-.033h3.136c.262 0 .495.167.579.415l3.419 10.014c.055.16.229.245.389.191.09-.031.16-.102.191-.191l3.419-10.014c.084-.248.317-.415.579-.415h3.556c.262 0 .494.167.579.415l3.419 10.014c.055.16.229.245.389.191.09-.031.16-.102.191-.191l3.419-10.014c.084-.248.317-.415.579-.415h3.136c.338 0 .612.275.612.614 0 .067-.011.134-.033.198l-5.645 16.535c-.085.248-.318.415-.58.415h-3.556c-.262 0-.495-.167-.58-.415l-3.418-10.012c-.055-.161-.229-.246-.389-.191-.09.03-.16.101-.191.191l-3.418 10.012c-.085.248-.318.415-.58.415zm33.356-1.048c-1.515 1.035-3.345 1.64-5.316 1.64-5.22 0-9.451-4.241-9.451-9.473s4.231-9.473 9.451-9.473c1.971 0 3.801.605 5.316 1.64v-.456c0-.327.264-.592.591-.592h3.248c.327 0 .591.265.591.592v16.578c0 .327-.264.592-.591.592h-3.248c-.327 0-.591-.265-.591-.592zm-5.021-2.801c2.773 0 5.021-2.253 5.021-5.032s-2.248-5.033-5.021-5.033-5.02 2.254-5.02 5.033 2.247 5.032 5.02 5.032zm26.285-12.865v-.456c0-.327.265-.592.591-.592h3.249c.326 0 .59.265.59.592v16.578h-.001c-.079 5.245-4.345 9.473-9.597 9.473-1.372 0-2.677-.289-3.857-.809-.313-.138-.719-.36-1.217-.668-.353-.219-.507-.653-.372-1.045l1.047-3.048c.106-.309.442-.474.751-.367.077.026.147.068.207.123.39.359.728.615 1.013.767.724.387 1.55.606 2.428.606 2.805 0 5.088-2.24 5.166-5.032h.002v-.456c-1.514 1.035-3.345 1.64-5.316 1.64-5.219 0-9.451-4.241-9.451-9.473s4.232-9.473 9.451-9.473c1.971 0 3.802.605 5.316 1.64zm-5.021 12.865c2.773 0 5.021-2.253 5.021-5.032s-2.248-5.033-5.021-5.033c-2.772 0-5.02 2.254-5.02 5.033s2.248 5.032 5.02 5.032zm20.969 4.441c-5.219 0-9.45-4.241-9.45-9.473s4.231-9.473 9.45-9.473c5.22 0 9.451 4.241 9.451 9.473s-4.231 9.473-9.451 9.473zm0-4.441c2.773 0 5.021-2.253 5.021-5.032s-2.248-5.033-5.021-5.033-5.02 2.254-5.02 5.033 2.247 5.032 5.02 5.032zm28.943-5.92v9.177c0 .327-.264.592-.591.592h-3.544c-.326 0-.59-.265-.59-.592v-8.881h-.011c.007-.098.011-.197.011-.296 0-2.289-1.851-4.145-4.135-4.145-2.283 0-4.135 1.856-4.135 4.145 0 .099.004.198.011.296h-.011v8.881c0 .327-.264.592-.59.592h-3.249c-.326 0-.591-.265-.591-.592v-16.578c0-.327.265-.592.591-.592h3.249c.326 0 .59.265.59.592v.052c1.293-.784 2.809-1.236 4.43-1.236 4.731 0 8.565 3.844 8.565 8.585z" fill="#0e0000"/></svg>