<svg fill="none" height="250" viewBox="0 0 250 250" width="250" xmlns="http://www.w3.org/2000/svg"><path d="m53.8378 54-23.8378 143h49.3784l6.237-38.894 38.8076 38.719 39.24-38.719 5.959 38.894h49.378l-23.289-143-70.798 70.694z" fill="#d7d8d7"/><path d="m123.841 145.133c-10.499 0-19.01-8.216-19.01-18.35 0-10.14 8.513-18.357 19.01-18.357 10.495 0 19.009 8.219 19.009 18.357 0 10.134-8.511 18.35-19.009 18.35zm1.087-61.9922c6.663-11.0976 13.711-22.1365 18.913-29.1408h-30.863c-15.0285 20.3824-29.0608 44.8112-33.0474 61.375-1.0223 3.639-1.5698 7.457-1.5698 11.405 0 24.108 20.3649 43.647 45.4802 43.647 25.116 0 45.481-19.539 45.481-43.647.004-23.758-19.779-43.0842-44.394-43.6392z" fill="#e22122"/></svg>