<svg fill="none" height="250" viewBox="0 0 250 250" width="250" xmlns="http://www.w3.org/2000/svg" xmlns:xlink="http://www.w3.org/1999/xlink"><clipPath id="a"><path d="m10 94h230v62h-230z"/></clipPath><g clip-path="url(#a)"><path d="m162.03 94v45.019c5.552.258 11.089.57 16.612.939v9.544c-8.73-.582-17.496-1.026-26.299-1.329v-54.173zm76.97.0053-12.613 29.2457 12.61 32.544-.014.006c-3.673-.524-7.351-1.019-11.04-1.493l-7.081-18.266-7.149 16.57c-3.387-.374-6.78-.728-10.18-1.059l12.296-28.498-11.261-29.0497h10.478l6.305 16.2567 7.011-16.2567zm-119.9 53.6947v-53.6948h27.039v9.6298h-17.353v12.482h13.13v9.544h-13.13v22.037zm-36.1675-44.064-.0003-9.6313h29.9588v9.6313h-10.137v44.325c-3.2327.085-6.4622.185-9.6852.307v-44.632zm-33.1128 47.407v-57.0367h26.9037v9.6307h-17.2191v13.045c3.9559-.051 9.5805-.108 13.0798-.1v9.545c-4.3802-.054-9.3246.06-13.0798.098v14.45c5.723-.45 11.4632-.844 17.2191-1.176v9.545c-9.0087.519-17.9769 1.188-26.9037 1.999zm-19.0007-22.065-.0006-34.9733h9.6862v57.9383c-3.5409.364-7.075.751-10.6031 1.161l-11.2159-32.226v33.606c-3.2349.421-6.4632.861-9.6856 1.319v-61.7977h9.205zm155.813 21.1v-56.0726h9.687v56.8726c-3.225-.287-6.453-.552-9.687-.8z" fill="#db202c"/></g></svg>