<svg fill="none" height="250" viewBox="0 0 250 250" width="250" xmlns="http://www.w3.org/2000/svg" xmlns:xlink="http://www.w3.org/1999/xlink"><linearGradient id="a"><stop offset="0" stop-color="#52bce8"/><stop offset=".1372" stop-color="#50b6e3"/><stop offset=".3237" stop-color="#4aa4d3"/><stop offset=".5384" stop-color="#3f88ba"/><stop offset=".7723" stop-color="#316097"/><stop offset="1" stop-color="#21336e"/></linearGradient><linearGradient id="b" gradientUnits="userSpaceOnUse" x1="58.2815" x2="58.5615" xlink:href="#a" y1="136.702" y2="135.311"/><linearGradient id="c" gradientUnits="userSpaceOnUse" x1="-3751.47" x2="-3729.66" xlink:href="#a" y1="3391.56" y2="3391.56"/><linearGradient id="d" gradientUnits="userSpaceOnUse" x1="-7888.15" x2="-7842.81" xlink:href="#a" y1="8492.08" y2="8492.08"/><linearGradient id="e" gradientUnits="userSpaceOnUse" x1="-4207.49" x2="-4183.16" xlink:href="#a" y1="1384.92" y2="1384.92"/><linearGradient id="f" gradientUnits="userSpaceOnUse" x1="54.6485" x2="93.4152" y1="135.695" y2="135.695"><stop offset="0" stop-color="#1885c8"/><stop offset=".1324" stop-color="#197fc1"/><stop offset=".326" stop-color="#1a70ad"/><stop offset=".5573" stop-color="#1c578d"/><stop offset=".8153" stop-color="#1f3461"/><stop offset=".9992" stop-color="#22183d"/><stop offset="1" stop-color="#22183d"/></linearGradient><clipPath id="g"><path d="m7 101h237v48h-237z"/></clipPath><g clip-path="url(#g)"><path d="m56.92 112.03-.31.15c-1.08.76-1.34 1.74-1.24 1.82l2.02-1.15c2.86-1.2 7-2.63 8.37-2.82-.05 0-5.56.3-8.84 2zm17.77-.48c-2.38-.48-4.83-.6-7.25-.34-5.62.58-8.32 1.4-9.68 1.94l-3.01 1.07-.72.77 2.2-.2 2.38-.91c.87-.3 1.85-.59 3.02-.86 5.52-1.32 14.24-1.14 13.06-1.47zm18.13 11.3c-.16-1.86-.52-3.7-1.07-5.49l-.36-1.02c-.7212-1.851-1.654-3.613-2.78-5.25-1.46-1.93-3.03-4.09-9.39-5.94 6.05 1.47 6.5 2.22 7.29 2.75l-.93-.9c-4.6-3.4-11.83-5.01-18.98-3.67 4.46-1.45 11.79-1.27 16.37 1.57-4.84-3.03-8.37-3.42-11.81-3.7-.53-.03-1.14-.06-1.83-.06-6.17 0-13.63 3.1-17.47 6.6-.34.3-.63.58-.88.84-1.19 1.39-.4 2.34.17 2.66.2.11-.04 2.15.14 2.27.62.41 2.8-2.14 3.79-2.58 6.6963-2.929 14.125-3.752 21.3-2.36 7.83 2.2 11.2 5.9 11.4 6.19.22.28 1.52 1.6 1.49 2.14-.0404.032-.0892.052-.1406.058-.0514.005-.1033-.005-.1494-.028-.2196-.183-.4267-.38-.62-.59-.0402-.017-.0774-.041-.11-.07-1.3286-1.176-2.8208-2.153-4.43-2.9-2.4-1.02-5.15-1.3-7.51-1.94 2.7 1.07 5.54 1.4 8.07 2.84 3.02 1.7 5.19 4.74 5.22 4.76 2.04 2.67 2.99 6.02 2.66 9.36 0 .08.02.16.01.24l.01.05v.02c-.07.68-.19 1.37-.34 2.04-.09.38-.22.8-.36 1.3l.03-.03c1.0298-2.937 1.4418-6.056 1.21-9.16zm-12.1-11.85.26.01c.1-.18-1.26-.7-1.76-.82-.69-.21-1.39-.38-2.1-.51.02 0-.23.09 1.25.57.37.12.11.5 2.34.75" fill="#f2940a"/><path d="m87.97 122.63c-.17-.08-.34-.14-.5-.2z" fill="#232e66"/><path d="m92.26 128.39c.33-3.34-.62-6.69-2.66-9.36-.03-.02-2.2-3.06-5.22-4.76-2.53-1.44-5.37-1.77-8.07-2.84 2.36.64 5.12.92 7.5 1.94 1.6129.746 3.1086 1.723 4.44 2.9l.1.07c.2.21.41.4.63.6.1.04.2.03.29-.04.03-.54-1.27-1.86-1.48-2.14-.22-.29-3.11-4.7-10.95-6.91-9.84-1.9-18.2 1.49-21.76 3.08-1 .51-1.5 2.4-1.22 2.63.23.2 1.24-.32 2.75-1.38l.3-.15c3.29-1.7 8.8-2 8.85-2-1.37.2-5.5 1.61-8.37 2.82l-1.2.5-.67.66 2.24-.86c1.36-.54 4.06-1.36 9.68-1.94 2.42-.26 4.87-.14 7.25.34 1.18.33-7.54.15-13.06 1.47-1.17.27-2.15.56-3.02.86l-3.47 1c.36.37 2.25 2.76 2.78 3.44l.94.54c.1.11.9.4.98.52l1.1-.52c.18.23-1 .8-.85 1 .24.28.95-1 2.16-1.76 7.03-3.6 12.54-3.7 15.15-3.64.46.03.91.1 1.36.22.39.2-2.87.35-2.08.59.7.2 2.51-.27 2.7-.3.07 0 .14-.01.2-.04.0731-.029.152-.039.23-.03.7-.01 1.38.02 2.07.1 1.87.45.12.69-.53.54-.3232-.026-.6481-.019-.97.02-.24.06-.72.11-.95.17-.35.08-1.02.17-1.36.23-.2.03-2.4-.03-2.06.26.08.01 1.7.1 1.95.23.27.03.53.03.8.02.19-.03.38-.04.57-.03.1 0 .2-.03.28-.09.13-.06.27-.1.42-.08.12 0 .32.06.28.15-.35.84-.95.75-2.04.67-.63-.06-1.27-.07-1.9-.03-1.27.1-2.61.67-2.84.47-.16-.13 1.48-.77 1.03-.86-.74-.12-6.5 1.93-6.81 2.73h.03c-.05.12.02.15.13.19.3.06 1.51-.38 1.81-.4.36.02.47-.17.82-.17.27 0 1.23-.48 1.5-.48.5 0 .7.25 1.21.14.41-.1.93-.04 1.33-.18.4-.11.79-.27 1.18-.37.1-.03.19-.05.28-.09l.4-.07c.1 0 .77.28.73.36.9.52 1.14.94 1.9.98h.31l.53-.1.69-.12c.3324-.035.6676-.035 1 0 .3 0 .59.1.88.14.35.05-.06.28-.19.35-.4153.257-.8539.475-1.31.65-.28.14-.58.2-.89.2-.16 0-.33.02-.49.07-.1.04-.2.07-.32.09l-.3-.01c-.1432-.009-.2868-.009-.43 0l-.17.05-.14-.01c-.1-.01-.2 0-.3.03-.0699.043-.1484.071-.23.08h-.12c-.1075-.017-.2174-.006-.32.03-.2739.104-.5679.146-.86.12-.02.02-2.05.14-2.07.16-.16.07-.33.13-.5.18-.35.17-.72.32-1.09.46-.09.03-.14.01-.22.03l-.71.2-.31.24c-.14.1-.3.16-.46.2-.13.02-.25.07-.38.09-.1037.031-.197.09-.27.17-.09.06-.2.04-.29.09-.18.1-2.67.93-2.86 1.03l-.24.1c-.12.06-.23.14-.34.22-.0667.122-.0845.265-.05.4h-.02.02v.05c.22.06.45.07.67.02.08 0 .17-.02.25-.05.12-.03.22-.03.34-.04.2481-.051.4851-.146.7-.28 2.69-.6 7.16-2.46 11.6-2.76.05 0 4.68-.2 7.79 1.24.92.43 5.23 2.84 3.5 9.72v.06h-.01l.13-.35.01-.05-.02.02c.14-.48.27-.91.36-1.3.1487-.67.2622-1.348.34-2.03v-.07c0-.08-.03-.16-.02-.24zm-15.13-18.71c.7.13 1.4.3 2.09.51.5.13 1.86.64 1.76.82l-.27-.01c-2.23-.25-1.97-.63-2.34-.75-1.48-.48-1.23-.57-1.24-.57zm-1.53 9.65.2-.1c-.85.02-1.7.18-2.5.46-.45.16-.87.38-1.26.65-.1.18.13.29.17.3.67.13.71-.09 3.39-1.3" fill="#fad50a"/><path d="m57.8 136.76c.0133-.001.0267-.001.04 0l.03-.01c-.0203.001-.0404.005-.06.01z" fill="url(#b)"/><path d="m85.15 140.35c-1.1553.784-2.3221 1.551-3.5 2.3-3.72 2.36-7.66 4.41-12.24 5.2-.4.07-.8.12-1.21.17h-.01c3.53-.28 5.55-.54 8.91-2.15 2.97-1.43 6.46-4.17 8.05-5.52z" fill="url(#c)"/><path d="m55.57 138.75c.29.2.59.37.9.53 2.55 1.36 6.26 2.08 4.46 1.25-3.78-2.13-1.04-.72 2.27.06 2.4324.594 4.9419.81 7.44.64 3.93-1.52 7.27-3.7 9.14-5.77-.37.25-.76.47-1.16.66-.05.02-3.81 1.1 1.1-2.43 3.71-2.66 6.35-6.2 7.34-10.68.07-.22.18-.43.32-.62l.39.15c-.3 1.43-.63 2.63-1.04 4.03.37-.46.58-.6.94-1.05-.85 3.28-2.87 5.48-5.07 7.91-.59.66.86-.04-.4 1.32.3-.33.23-.15.47-.03 1-1.26 2.62-1.33 3.53-2.7 2.37-3.62 3.2-5.63 3.77-7.9l.05.06v-.03c-.5646-.609-1.2271-1.119-1.96-1.51-1.0328-.512-2.1455-.843-3.29-.98-.2163-.035-.433-.069-.65-.1-1.59 3.77-1.81 6.39-5.32 8.47-3.9 2.54-1.46 1.89-1.42 1.87.3-.12.59-.28.86-.46-1.5 2.42-4.15 3.96-7.3 4.65-.07.23-1.16.2-1.35.36-.15.21-.39.34-.65.35.11.33-.65.45-.87.75-.3.4.26.57-.41.6l-.54-.28c-2.42 0-3.42-.73-4.2-1.42l-1.61.04c-.26.19-1.09.18-1.66.42-.1333-.007-.2618-.052-.37-.13-.24-.12-.51-.24-.62 0-.13.28-.63.02-.84-.02-.12.06-.9.41-.72.44-.9-.15-.59.13-1.44.42l-.82.03c-.2.06-.1.58.73 1.1zm25.25-8.68c.66-1.43 2.19-2.2 2.69-3.93-.07.26.47.36.69.36.67 0 .96-1.28 1-1.33l.16-.24c-.23.84-.29 1.92-.91 3.05l-.7 1.09c-.74 1.12-1.6 1.52-2.42 2.56-.1286-.078-.2747-.122-.4249-.129s-.2998.023-.4351.089c-.08-.5 1-1.2.35-1.52z" fill="url(#d)"/><path d="m75.2 143.5c-1.6954.442-3.3888.892-5.08 1.35-1.8.5-3.74 1.2-9.21.69h-.1c-.78.1-1.58.13-2.38.07-.78-.05-2.17-.27-2.15-.26.03 0 .3.11.53.2h-.02s.7-.1 3.16.4c.97.2 1.93.25 2.93.37h.06c.73.1 1.47.12 2.2.1 1.81-.1 3.6-.4 5.33-.9 2.88-.82 4.98-1.9 4.72-2.01z" fill="url(#e)"/><path d="m91.87 128.84-.01-.12-.03-.36v-.11c-.0176-.12-.0376-.24-.06-.36l-.01-.09c-.0235-.134-.0502-.267-.08-.4l-.05-.21-.05-.18c-.0351-.124-.0717-.247-.11-.37l-.1-.24c-.043-.118-.0897-.235-.14-.35 0-.02 0-.04-.02-.06l-.13-.27c-.2944-.582-.668-1.12-1.11-1.6-.58 2.27-1.4 4.28-3.77 7.9-.91 1.37-2.53 1.44-3.53 2.7-.24-.12-.17-.3-.48.03 1.27-1.36-.18-.66.41-1.32 2.2-2.43 4.22-4.63 5.07-7.91-.36.45-.57.59-.94 1.05.41-1.4.73-2.6 1.04-4.03l-.39-.15c-.14.19-.25.4-.32.62-1 4.48-3.63 8.02-7.34 10.68-4.91 3.52-1.15 2.45-1.1 2.43.4-.19.8-.4 1.16-.66-1.87 2.08-5.2 4.25-9.14 5.77-6.64 2.56-14.97 3.26-20.82-1.5 1.28 1.29 2.7 2.45 4.21 3.45-.88-.15-1.5-.83-2.34-1.1.02.04 2.02 2.65 8.02 3.34l1.2.12c5.47.5 7.41-.2 9.2-.7 1.6918-.449 3.3852-.892 5.08-1.33.26.1-1.84 1.19-4.72 2-1.73.5-3.52.81-5.32.9-.74.03-1.48 0-2.2-.08h-.07c-1-.13-1.96-.18-2.93-.38-2.47-.5-3.16-.4-3.16-.4s.37.2 3.77 1.42c-.21.08-1.22.21-5.4-1.58.04.03 5.01 2.4 7.85 2.68 2.14.21 4.29.14 6.4-.22 4.58-.79 8.52-2.84 12.24-5.2 1.31-.82 2.6-1.69 3.87-2.54l-.02.1.27.04c-.05.14-.05.14-.75.98 1.52-1.23 2.3-3.15 3.93-4.31-.12.3-.27.59-.46.85l-.15.22c-.8299 1.208-1.7779 2.33-2.83 3.35l-.1.1-.32.28c-3.5479 3.274-7.8924 5.56-12.6 6.63.43-.05.87-.14 1.3-.26-.77.22-.8.24-1.12.35l1.25-.24c-.61.3-1.32.44-3.03.8 6.16-1.07 11.28-3.68 15.03-7.58.17-.17 1.18-1.26 1.51-1.66 1.5561-1.784 2.7849-3.829 3.63-6.04.17-.47.32-.95.43-1.45.04-.14.08-.28.1-.42.16-.92.17-.92.24-1.46v-.03c.0326-.342.0493-.686.05-1.03v-.1l-.01-.4z" fill="url(#f)"/><path d="m69.68 134.8c-.5915-.363-1.0749-.877-1.4-1.49-.13-.2-.24-.43-.35-.64l-.14-.24c-.2142-.401-.4725-.776-.77-1.12l-.28-.3-.24-.27c-.0566-.066-.1038-.141-.14-.22-1.24-3.17-1.53-4.96-1.98-8.1-.23-1.63-1.22-2.94-2.83-4.9l-.67-.84-.5-.66c-.4-.52-.84-1.01-1.3-1.48l-1.55-1.31-1.72-1.45c-.8222-.681-1.6765-1.321-2.56-1.92-1.1133-.783-2.4388-1.209-3.8-1.22-.9404-.021-1.8692.211-2.69.67-.92.66-1.91 1.22-2.96 1.66-.7.3-1.43.53-2.35.83l-.95.32c-.87.3-1.66.8-2.31 1.45l-.36.35c-.1198.12-.2432.237-.37.35-.16.16-.35.3-.55.39-.26.07-.52.11-.79.12l-.58.03-.42.02c-1.2.07-2.16.74-2.78 1.25-.33.27-.62.54-.92.8l-.13.13c-.28.26-.57.5-.88.72-.85.55-1.65.63-2.54.72-.48.04-.95.1-1.42.2-.6.12-1.18.31-1.74.58-.72.35-1.42.77-2.08 1.24l-1.03.74-.88.64c-1.33.93-2.47 1.55-3.7 1.55-1.22 0-2.09-.71-2.2-1.82-.11-.97.39-1.95 1.4-2.77l.55-.45c.41-.33.8-.64 1.14-.94.48-.4.91-.83 1.3-1.3.3686-.462.618-1.007.7261-1.588.1081-.58.0717-1.179-.1061-1.742-.3-1.18-1.2-1.98-2.76-2.44-.5418-.152-1.093-.269-1.65-.35l-.18-.04c-.1479-.014-.2949-.038-.44-.07-.1225-.019-.243-.049-.36-.09-1.0556-.556-2.0774-1.173-3.06-1.85l-.15-.1-.1.15c-.34.48-.6.86-.8 2.54-.22 1.85 1.3 4.11 3.93 4.52.15.02.27.13.3.28.04.14 0 .3-.12.38-2.78 2.19-3.37 3.13-3.51 5.58-.0484.747.0562 1.496.3072 2.201.2511.705.6433 1.351 1.1528 1.899.611.608 1.3417 1.081 2.1456 1.391.804.31 1.6637.449 2.5244.409.5628-.003 1.1245-.05 1.68-.14.2 0 .36.15.37.34.14 1.71.44 3.1.83 3.71.1.16.07.36-.06.48-.16.14-.35.24-.55.31-.7659.261-1.5708.39-2.38.38-.56 0-.98.39-1.31 1.21-.11.27-.2.56-.28.83l-.03.08-.13.39c-.03.1-.07.19-.12.28-.13.22-.3.43-.5.6-.0693.06-.1584.092-.25.09h-.07c-.0555-.012-.1077-.036-.1527-.07-.045-.035-.0816-.079-.1073-.13-.1335-.237-.3172-.443-.5383-.601-.2211-.159-.4742-.268-.7417-.319h-.07c-.6201.056-1.2137.277-1.7187.642-.5049.364-.9026.857-1.15129 1.428-.02471.062-.06561.116-.11841.156-.05279.041-.11552.066-.18159.074l-.07.01c-.61.02-1.15.42-1.35.99-.1.26-.16.52-.2.8l-.05.18c-.03.2-.07.43-.13.63-.04.16-.1.32-.19.47l-.12.22-.1.15c-.17.32-.21.7-.1 1.05.08.26.27.46.52.57.26.13.54.23.83.3.42.1.85.17 1.29.19.08 0 .16-.03.23999-.07l.17-.12c.0416-.034.0898-.058.1415-.072s.1057-.017.1585-.008l.28.05.8.16h.04l.75.15.3.06.2.01c1.17-.06 1.66-.51 1.99-.95.09-.12.18-.26.26-.4l.13-.22.1-.17c.1-.16.19-.31.3-.46.06-.1.18-.15.3-.15l.1.01.38.09.62.07h.23c1.11 0 1.94-.61 2.62-1.2l.23-.19.3-.26c.17-.14.33-.27.51-.38.26-.2.57-.32.9-.33h.06c1.0723.069 2.1403.192 3.2.37.5-.03 1-.16 1.45-.39.47-.22.93-.47 1.38-.75.12-.08.25-.14.38-.2l.04-.01.44-.21c.3943-.189.7424-.462 1.02-.8.27-.4.5-.83.7-1.27l.28-.57.48-.98c.07-.13.2-.2.34-.2h.1c.58-.02 1.15-.08 1.71-.17l.7-.1c.52-.09.95-.16 1.28-.17.08 0 .3.01.59.04l.67.04c1.0055.061 2.0133.074 3.02.04.564-.029 1.1203-.144 1.65-.34.1 0 .2.04.26.1.18.19.38.37.58.55.12.1.16.25.11.4-.0231.068-.0658.128-.1226.173-.0569.044-.1255.071-.1974.077l-.22.02c-.3364.025-.6524.171-.89.41-.0351.046-.0807.082-.1329.107-.0522.024-.1095.035-.1671.033-.0474.001-.0948-.005-.14-.02-.1483-.065-.3082-.099-.47-.1h-.48c-.6 0-1.2.03-1.8.12-.36.04-.7.15-1 .3-.1408.065-.2594.169-.3412.301-.0818.131-.1231.284-.1188.439.04.7 1.03 2.6 1.7 3.27.32.2.69.3 1.06.27h.19c.14 0 .26.07.33.2.69 1.35 1.88 2.27 2.97 2.27h.07c1.04-.05 3.84-1.06 5.8-1.99l.08-.02.2-.04.4-.05.2-.02c.43-.03.86-.13 1.28-.3.33-.16.81-.78 1.22-1.58.06-.12.2-.2.33-.2h.03c.16.02.28.12.33.27.04.15.1.3.17.43.34.63.94.95 1.78.94h.14c.6-.05 1.2-.18 1.77-.4l.31-.1c.44-.16.89-.29 1.35-.38.2642-.045.5327-.058.8-.04l.53.04.36.02c.17.02.35.03.54.03.44.01.87-.07 1.27-.25.43-.19.83-.42 1.2-.7l.1-.08c.0649-.044.1414-.069.22-.07.09 0 .17.04.24.1 1.2829 1.133 2.9386 1.752 4.65 1.74h.24c.46.02.91-.17 1.22-.52.16-.2.2-.47.14-.71-.0149-.051-.0187-.104-.0112-.156.0074-.053.026-.103.0544-.147.0284-.045.066-.083.1103-.111.0443-.029.0943-.048.1465-.056.33-.05.65-.19.91-.4.1985-.173.3206-.417.34-.68 0-.15-.06-.3-.17-.4-.34-.3-.73-.54-1.14-.73zm-16.54-2.87c-.25.32-.63.41-.98 1.03-.7-.28-.82-1.2-.95-1.6.56-.1 1.87-.35 2.56-.45-.27.3-.48.64-.63 1.02z" fill="#fff"/><path d="m68.78 135.24c-1.28-.75-1.79-2.16-2.58-3.27-.28-.4-.77-.67-1.03-1.07-.92-2.5-1.7-5-1.95-7.85-.145-.729-.3871-1.435-.72-2.1-1.16-1.87-2.66-3.58-4.1-5.3l-.41-.42-5.07-4.2c-.63-.43-1.31-.8-2.03-1.08-1.1641-.383-2.4269-.337-3.56.13-1.09.58-2.07 1.41-3.22 1.8-1.66.75-3.54.9-4.97 2.18-.84.72-1.54 1.85-2.78 1.66-1.3453-.045-2.6574.423-3.67 1.31-.94.85-1.83 1.86-3.05 2.1-1.07.45-2.37.23-3.46.64-1.72.43-3.1 1.8-4.56 2.85-1.47.85-2.88 1.77-4.72 1.73-1.24-.1-2.3-.9-2.73-2.07-.1852-.639-.1818-1.318.0099-1.954.1916-.637.5632-1.205 1.0701-1.636 1.09-1.3 2.82-2.07 3.67-3.57.45-.9.37-2-.21-2.82-1.14-1.17-2.76-1.21-4.23-1.57-.94-.26-1.67-.98-2.5-1.43-.3.48-.44 1.05-.39 1.62.1076.68.394 1.318.8298 1.851.4358.532 1.0053.939 1.6502 1.179.75.32 1.6.09 2.37.25.24.1.4.3.45.54 0 .22-.1.42-.25.58-1.2 1-2.46 1.96-3.46 3.2-1.07 1.15-1.19 3.18-.63 4.63.3481.804.9021 1.502 1.6062 2.024.7041.521 1.5332.847 2.4038.946 1.22.2 2.3-.13 3.42-.37.0607.016.1168.046.1637.088.0469.041.0833.094.1063.152.11.98-.04 1.85.18 2.75.2.76.46 1.5.77 2.22.0275.14.0238.284-.0107.422-.0346.139-.0992.268-.1893.378-.6.43-1.25.8-1.94 1.09l-1.66.1-.32.15c-.62.73-.64 1.48-1.02 2.3-.51.84-1.45 1.25-2.24 1.74-.2447.427-.5476.817-.9 1.16-.28.22-.62.35-.98.36-.57.66-.7 1.58-.85 2.48.94.09 1.92.6 2.84.09.79-.37.96-1.33 1.55-1.91.47-.51 1.18-.13 1.74-.02.83.04 1.43-.56 2.13-.84.49-.32.89-.88 1.4-1.2.99-.47 2.35-.21 3.38-.02.8.2 1.63.1 2.37-.23.66-.41 1.28-.93 2.02-1.1.66-.34.99-1.09 1.26-1.7.22-.58.77-1.03.73-1.7-.17-.14-.37-.47-.62-.44-.32.44-.56.91-.92 1.35-1.54 2.1-2.76 2.3-5.89 2.3-1.1245-.085-2.2535.092-3.2981.517s-1.9763 1.087-2.7219 1.933c-.0569.025-.1202.032-.1811.019-.0609-.012-.1164-.044-.1589-.089 0-.3.09-.61.26-.87 1.42-2.03 3.65-2.5 6-2.55 1.2396-.039 2.4581-.331 3.58-.86 1.1587-.59 2.0671-1.577 2.56-2.78.27-1.34.38-2.8.72-4.08.11-.14.29-.2.46-.18.18.02.33.13.4.29-.24 1.32-.67 2.88-.15 4.16 1.02 1.35 2.92.62 4.31.55 1.34-.08 2.68-.06 4 .07.69-.02 1.2.15 1.73-.28.15-.25.2-.53.16-.81-.04-.39-.36-.62 0-.94.0838-.037.1763-.049.2667-.034.0903.014.1748.053.2433.114.2.53.28 1.1.62 1.58.7266.857 1.6219 1.555 2.63 2.05.9.62 1.64 1.49 1.7 2.58.01.56-.5.94-.93 1.2-.72.41-1.54.61-2.37.57-1.13-.55-1.43-1.74-2.18-2.62-.38-.43-.96-.5-1.53-.47-.6.03-1.21.12-1.8.28-.0675.067-.1181.149-.1477.24-.0295.09-.0372.186-.0223.28.39.7.81 1.38 1.24 2.08.5.3 1.18-.17 1.6.36.37.57.6 1.22 1.16 1.65.56.5 1.35.65 2.05.39 1.6-.45 3.15-1.06 4.63-1.8h.5c.59-.06 1.25-.03 1.67-.48.46-.65.87-1.34 1.22-2.05.36-.49.2-1.23.04-1.77-.6636-.887-1.1771-1.877-1.52-2.93-.36-.1-.68-.32-1.09-.3-.19.09-.46.05-.57.26l1.69 3.33c.14.3.2.64.17.97-.2186.724-.6218 1.379-1.17 1.9-.1.06-.24.12-.32-.02.19-.73.53-1.52.49-2.35l-1.65-2.97c-.2-.4-.53-.77-.51-1.24.02-.2.16-.38.36-.45.72-.23 1.6-.2 2.15-.77.73-1.13.88-2.24 1.07-3.59.07-.13.2-.22.34-.25.14.01.27.1.34.21.2434 1.444-.0946 2.925-.94 4.12-.042.072-.0579.155-.0452.237.0128.082.0535.158.1152.213.81.25 1.67 0 2.35-.37.83-.03 1.66-.13 2.47-.32.1.04.16.12.18.21-.5144.57-.8576 1.274-.99 2.03-.64.67-1.55 1.25-1.62 2.2.11.48.52.03.8.08.12.01.21.12.2.25l-.63.94c-.34.55.06 1.2.06 1.72.2.42.65.68 1.11.65.97-.04 1.82-.41 2.67-.71 1.0095-.363 2.0999-.439 3.15-.22 1-.06 1.75-.73 2.5-1.39.4.05.78.25 1.04.58.5526.588 1.228 1.047 1.9781 1.344.7501.298 1.5566.426 2.3619.376l.14-.08c.0243-.028.0422-.06.0524-.095.0102-.036.0126-.073.0068-.109-.0057-.036-.0193-.071-.0399-.101-.0207-.031-.0477-.056-.0793-.075l-1-.52c-.7-.45-1.58-1.04-1.82-1.83-.2487-.76-.5914-1.485-1.02-2.16-.15-.34-.5-.62-.64-.96.0136-.028.035-.051.0616-.067.0267-.016.0574-.024.0884-.023 1.1.38 1.77 1.48 2.28 2.46.82 1.13 1.99 2.1 3.52 1.84l.13-.11c.0292-.037.0451-.083.0451-.13s-.0159-.093-.0451-.13l-.77-.38zm-16.77-15.04-.05-.01v.02l-.02.01c-.07.08-.2.1-.28.03l-.02-.02-.01-.03c-.15-.88-.38-1.75-.7-2.59l-.2-.34-.08-.1-.17-.25c-.0938-.119-.1521-.262-.168-.412s.0111-.302.078-.438l.02-.03c.18-.14.41-.18.62-.1l.03.02c.32.26.59.59.77.97.22.56.34 1.17.33 1.78 0 .5-.07 1-.2 1.48zm8.15 14.08h-.02c-.43.14-.88.19-1.33.16h-.03l-.09-.04-.1-.06c-.0358-.027-.062-.065-.0746-.108-.0126-.044-.011-.09.0046-.132.1153-.329.3112-.624.5697-.858s.5714-.4.9103-.482h.1l.16.03c.12.03.22.14.23.27.02.1.02.22.02.33.03.34-.1.67-.35.9zm2.61-5.83-.06.18-.06.19c-.0188.072-.0566.138-.1093.191-.0527.052-.1185.09-.1907.109-.0401.014-.0832.018-.1252.011s-.0815-.024-.1148-.051c-.0332-.026-.0597-.059-.0771-.098-.0174-.038-.0253-.08-.0229-.122l-.01-.19-.07-.66c-.0373-.264-.1329-.517-.28-.74-.2099-.23-.4166-.464-.62-.7-.1764-.211-.4267-.347-.7-.38-.21.08-.4.2-.54.38l-.22.28-.2.27c-.0288.034-.068.057-.1114.066-.0435.009-.0887.003-.1286-.016l-.03-.01c-.0544-.126-.0817-.263-.08-.4 0-.19.05-.37.12-.54l.18-.36.2-.41.02-.04c.09-.1.15-.22.18-.34l.06-.14.11-.3c.0242-.083.0671-.158.1254-.222.0582-.063.1303-.112.2106-.143s.1666-.043.2523-.035c.0856.008.1684.035.2417.08.26.15.48.37.62.64l.1.16.12.2.25.32c.7.77 1.03 1.5 1.03 2.25 0 .2-.03.39-.07.57z" fill="#db0a40"/><path d="m12.1 137.66c.6258-.442 1.1228-1.043 1.44-1.74-.1128-.231-.2854-.428-.5-.57-.0734-.031-.1527-.045-.2322-.041-.0796.003-.1573.024-.2278.061-.47.39-.96.74-1.47 1.05-.22.15-.13.47-.18.7 0 .22.26.37.39.5.25.1.53.12.79.04zm-2.23.06c-.38.17-.66.49-.79.88-.1.68.04 1.32-.49 1.82-.02.13-.15.28-.02.4.48.19.98.32 1.5.4.25-.83.44-1.75.74-2.47v-.22c-.26-.31-.51-.72-.94-.8zm32.38-2.29c.43.47.4 1.2.9 1.56.62.07 1.24-.12 1.7-.53.28-.24-.12-.54-.17-.82-.28-.4-.08-1.22-.76-1.23-.68.09-1.37.13-2.06.13l-.19.13c-.13.4.47.4.58.76" fill="#db0a40"/><g clipRule="evenodd" fill="#d2003c" fillRule="evenodd"><path d="m211.48 132.72c0 1.8 1.53 3.26 3.43 3.26 1.89 0 3.42-1.46 3.42-3.26v-10.83h5.92v11.98c0 4.05-4.2 7.33-9.36 7.33-5.18 0-9.37-3.28-9.37-7.33v-11.98h5.96zm26.21 7.81h6v-31.5h-6zm-10.14 0h6v-31.5h-6zm-109.77-24.89h-3.26v24.89h-6.38v-30.05h10.97c5 0 9.04 3.97 9.04 8.87-.013 2.002-.7 3.941-1.95 5.505s-2.99 2.661-4.94 3.115l8.82 12.56h-7.52l-6.38-9.84v-7.19h1.48c2.36 0 4.27-1.76 4.27-3.93-.009-.532-.124-1.057-.338-1.544-.215-.488-.525-.927-.911-1.293-.387-.366-.842-.651-1.34-.839s-1.029-.274-1.561-.254"/><path d="m135.7 128.98c-.026-.497.05-.995.222-1.462s.438-.895.781-1.256.756-.649 1.213-.845c.458-.197.951-.298 1.449-.298s.991.101 1.449.298c.457.196.87.484 1.213.845s.609.789.781 1.256.248.965.222 1.462zm13.24 3.46c.04-.41.06-.83.05-1.26.1-6.5-4.2-10.06-9.68-10.06-2.645.019-5.175 1.086-7.033 2.969s-2.893 4.426-2.877 7.071c-.013 2.644 1.022 5.186 2.88 7.068s4.386 2.951 7.03 2.972c4.18 0 7.44-1.89 9.12-4.85l-4.87-2.25c-.345.698-.883 1.283-1.548 1.687-.666.404-1.433.609-2.212.593-2.33 0-4.06-1.72-4.08-3.74v-.2zm13.56 3.49c-2.43 0-4.4-2.16-4.4-4.83 0-2.66 1.97-4.82 4.4-4.82 2.44 0 4.4 2.16 4.4 4.82 0 2.67-1.96 4.83-4.4 4.83zm10.32 4.6-.01-31.5h-5.98v14.9c-.79-.797-1.729-1.431-2.763-1.865-1.035-.434-2.145-.66-3.267-.665-4.95 0-8.97 4.4-8.97 9.82s4.02 9.82 8.97 9.82c2.34 0 4.46-1 6.06-2.6v2.09zm20.34-5.22h-5.74v-19.67h4c1.76 0 3.18 1.6 3.18 3.37 0 .843-.335 1.652-.931 2.249-.597.596-1.406.931-2.249.931h-2.08v5.4h3.82c.5.001.995.102 1.455.298.461.195.878.48 1.226.839.349.359.622.784.804 1.25.182.465.268.963.255 1.463-.08 2.2-1.43 3.73-3.74 3.87zm5.02-11.14c.822-.737 1.481-1.637 1.938-2.642.456-1.005.698-2.094.712-3.198 0-2.04-.79-3.92-2.17-5.4-1.43-1.57-3.96-2.45-7.38-2.45h-10.26v30.05h13.25c5.07-.08 9.16-3.92 9.16-8.62 0-3.42-1.2-5.86-5.25-7.74"/></g></g></svg>