<svg fill="none" height="250" viewBox="0 0 250 250" width="250" xmlns="http://www.w3.org/2000/svg"><path d="m92.6641 118.733c-.2469 0-.4198-.117-.5186-.351l-2.8651-6.518c-.0329-.084-.0988-.126-.1976-.126h-1.5313c-.1153 0-.1729.059-.1729.176v6.367c0 .134-.0412.243-.1235.326-.0823.084-.1894.126-.3211.126h-3.2108c-.1317 0-.2388-.042-.3211-.126-.0823-.083-.1235-.192-.1235-.326v-16.646c0-.133.0412-.242.1235-.326.0823-.083.1894-.125.3211-.125h7.1873c1.0868 0 2.0418.226 2.8651.677s1.4613 1.09 1.9141 1.918c.4529.827.6793 1.775.6793 2.845 0 1.103-.2676 2.064-.8028 2.883-.5351.819-1.2802 1.412-2.2352 1.78-.1153.05-.1482.134-.0988.251l3.1615 6.668.0493.201c0 .217-.1317.326-.3951.326zm-5.1126-13.989c-.1153 0-.1729.058-.1729.175v3.46c0 .117.0576.175.1729.175h2.6922c.6092 0 1.1032-.171 1.4819-.513.3787-.343.5681-.799.5681-1.367 0-.585-.1894-1.053-.5681-1.404s-.8727-.526-1.4819-.526zm17.1405 10.654c.511 0 .984-.079 1.421-.238.436-.159.802-.372 1.099-.639.099-.117.206-.176.321-.176.099 0 .197.059.296.176l1.532 1.855c.098.117.148.226.148.326 0 .117-.05.226-.148.326-.56.602-1.268 1.07-2.125 1.404-.856.334-1.77.501-2.741.501-1.12 0-2.112-.205-2.976-.614-.865-.409-1.577-.982-2.1368-1.717-.9056-1.17-1.3584-2.658-1.3584-4.463 0-.802.0905-1.554.2717-2.256.3622-1.303 1.0702-2.352 2.1245-3.146 1.053-.794 2.288-1.191 3.704-1.191 1.647 0 2.977.518 3.989 1.554 1.013 1.037 1.676 2.482 1.988 4.337.066.468.116.978.149 1.53 0 .301-.149.451-.445.451h-7.459c-.049 0-.095.017-.136.05s-.053.084-.037.15l.148.502c.165.401.453.714.865.94.411.226.914.338 1.506.338zm-.642-6.267c-.839 0-1.408.41-1.704 1.228-.066.168-.107.293-.123.376v.051c0 .1.057.15.172.15h3.384c.066 0 .111-.021.136-.063.025-.041.029-.087.012-.138l-.098-.325c-.132-.402-.346-.715-.643-.941-.296-.225-.675-.338-1.136-.338zm13.214-3.56c1.087 0 2.075.188 2.964.564s1.589.894 2.099 1.555c.511.66.766 1.391.766 2.193v8.398c0 .134-.041.243-.123.326-.083.084-.19.126-.322.126h-3.21c-.132 0-.239-.042-.321-.126-.083-.083-.124-.192-.124-.326v-.501c0-.084-.021-.134-.062-.15-.041-.017-.086.008-.136.075-.658.819-1.72 1.228-3.186 1.228-1.301 0-2.338-.313-3.112-.94s-1.161-1.55-1.161-2.77c0-1.287.441-2.281 1.322-2.983s2.153-1.053 3.816-1.053h2.346c.115 0 .173-.059.173-.176v-.426c0-.451-.144-.806-.432-1.065s-.696-.389-1.223-.389c-.379 0-.704.063-.975.188-.272.125-.466.297-.581.514-.082.117-.16.205-.234.263-.075.059-.169.08-.284.063l-3.31-.426c-.297-.034-.428-.151-.395-.351.082-.719.378-1.367.889-1.943.51-.577 1.181-1.032 2.013-1.366.831-.335 1.766-.502 2.803-.502zm-.42 10.379c.626 0 1.14-.163 1.544-.489.403-.326.605-.756.605-1.291v-.552c0-.117-.058-.175-.173-.175h-1.432c-.626 0-1.108.109-1.445.326-.338.217-.507.543-.507.978 0 .367.124.66.371.877s.593.326 1.037.326zm14.153 2.983c-1.351 0-2.532-.342-3.545-1.028-1.012-.685-1.733-1.629-2.161-2.832-.313-.803-.469-1.764-.469-2.883 0-1.12.156-2.081.469-2.883.412-1.17 1.128-2.085 2.149-2.746 1.021-.66 2.206-.99 3.557-.99 1.366 0 2.568.343 3.606 1.028 1.037.685 1.737 1.554 2.099 2.607.099.268.165.543.198.828v.1c0 .217-.132.351-.396.401l-3.136.476-.124.025c-.214 0-.337-.1-.37-.301l-.099-.35c-.099-.368-.313-.669-.642-.903-.33-.234-.716-.351-1.161-.351-.873 0-1.449.393-1.729 1.178-.181.468-.272 1.103-.272 1.906 0 .718.083 1.345.247 1.88.313.852.898 1.278 1.754 1.278.428 0 .794-.108 1.099-.326.305-.217.531-.534.679-.952l.025-.126c.016-.083.078-.171.185-.263s.218-.129.334-.113l3.161.502c.296.05.42.217.371.501-.033.268-.075.477-.124.627-.395 1.17-1.107 2.081-2.136 2.732-1.03.652-2.219.978-3.569.978zm15.436-10.278c0 .133-.041.242-.123.326-.082.083-.19.125-.321.125h-2.05c-.115 0-.173.058-.173.175v4.388c0 .952.379 1.429 1.136 1.429h.766c.131 0 .238.041.321.125.082.083.123.192.123.326v2.632c0 .268-.14.418-.42.451-.757.034-1.292.051-1.605.051-1.433 0-2.495-.234-3.186-.702-.692-.468-1.046-1.337-1.062-2.608v-6.092c0-.117-.058-.175-.173-.175h-1.21c-.132 0-.239-.042-.321-.125-.083-.084-.124-.193-.124-.326v-2.432c0-.134.041-.242.124-.326.082-.083.189-.125.321-.125h1.21c.115 0 .173-.059.173-.176v-2.833c0-.133.041-.242.123-.325.083-.084.19-.126.321-.126h3.038c.132 0 .239.042.321.126.083.083.124.192.124.325v2.833c0 .117.058.176.173.176h2.05c.131 0 .239.042.321.125.082.084.123.192.123.326zm13.115 10.278c-1.317 0-2.474-.267-3.47-.802s-1.77-1.287-2.321-2.256c-.552-.97-.828-2.089-.828-3.36v-5.139c0-1.27.276-2.386.828-3.347.551-.961 1.325-1.708 2.321-2.243s2.153-.803 3.47-.803c1.301 0 2.454.255 3.458.765 1.005.51 1.783 1.208 2.334 2.093.552.886.828 1.864.828 2.934 0 .284-.149.426-.445.426h-3.211c-.296 0-.444-.05-.444-.151v-.15c0-.652-.227-1.208-.68-1.667-.452-.46-1.066-.69-1.84-.69-.757 0-1.366.251-1.827.752-.461.502-.692 1.154-.692 1.956v5.39c0 .802.255 1.454.766 1.955.51.502 1.152.752 1.926.752.725 0 1.309-.196 1.754-.589.444-.393.667-.94.667-1.642v-.652c0-.117-.058-.175-.173-.175h-2.272c-.132 0-.239-.042-.322-.126-.082-.083-.123-.192-.123-.325v-2.457c0-.134.041-.243.123-.326.083-.084.19-.126.322-.126h6.026c.132 0 .239.042.321.126.082.083.124.192.124.326v3.259c0 1.253-.276 2.356-.828 3.309-.551.953-1.325 1.688-2.321 2.206-.997.518-2.153.777-3.471.777zm15.289-13.337c.527 0 .955.092 1.284.276.214.117.297.301.247.552l-.543 3.208c-.017.218-.124.326-.321.326-.083 0-.148-.008-.198-.025-.197-.05-.444-.075-.741-.075-.263 0-.461.017-.593.05-.51.067-.942.268-1.296.602s-.531.777-.531 1.329v6.442c0 .134-.041.243-.124.326-.082.084-.189.126-.321.126h-3.211c-.131 0-.238-.042-.321-.126-.082-.083-.123-.192-.123-.326v-12.058c0-.134.041-.242.123-.326.083-.083.19-.125.321-.125h3.211c.132 0 .239.042.321.125.083.084.124.192.124.326v.552c0 .083.02.133.062.15.041.017.078-.008.111-.075.658-.836 1.498-1.254 2.519-1.254zm8.2-.025c1.087 0 2.075.188 2.964.564s1.589.894 2.099 1.555c.511.66.766 1.391.766 2.193v8.398c0 .134-.041.243-.124.326-.082.084-.189.126-.321.126h-3.211c-.131 0-.238-.042-.321-.126-.082-.083-.123-.192-.123-.326v-.501c0-.084-.021-.134-.062-.15-.041-.017-.086.008-.136.075-.658.819-1.72 1.228-3.186 1.228-1.301 0-2.338-.313-3.112-.94s-1.161-1.55-1.161-2.77c0-1.287.441-2.281 1.322-2.983s2.153-1.053 3.816-1.053h2.346c.115 0 .173-.059.173-.176v-.426c0-.451-.144-.806-.432-1.065-.289-.259-.696-.389-1.223-.389-.379 0-.704.063-.976.188-.271.125-.465.297-.58.514-.082.117-.161.205-.235.263-.074.059-.168.08-.284.063l-3.309-.426c-.297-.034-.428-.151-.395-.351.082-.719.378-1.367.889-1.943.51-.577 1.181-1.032 2.013-1.366.831-.335 1.766-.502 2.803-.502zm-.42 10.379c.626 0 1.14-.163 1.544-.489.403-.326.605-.756.605-1.291v-.552c0-.117-.058-.175-.173-.175h-1.433c-.625 0-1.107.109-1.444.326-.338.217-.507.543-.507.978 0 .367.124.66.371.877s.592.326 1.037.326zm20.278-6.518c.263.819.395 1.78.395 2.883 0 1.186-.173 2.239-.519 3.159-.378 1.036-.992 1.876-1.84 2.519-.848.644-1.799.965-2.853.965-1.251 0-2.189-.384-2.815-1.153-.05-.067-.095-.092-.136-.075s-.062.067-.062.15v4.989c0 .134-.041.242-.123.326-.083.084-.19.125-.321.125h-3.211c-.132 0-.239-.041-.321-.125-.083-.084-.124-.192-.124-.326v-16.646c0-.134.041-.242.124-.326.082-.083.189-.125.321-.125h3.211c.131 0 .238.042.321.125.082.084.123.192.123.326v.602c0 .083.021.133.062.15s.086-.008.136-.075c.626-.886 1.564-1.329 2.815-1.329 1.071 0 2.059.36 2.964 1.078.906.719 1.523 1.646 1.853 2.783zm-4.446 4.989c.296-.552.445-1.279.445-2.181 0-.853-.14-1.546-.42-2.081-.346-.618-.848-.928-1.507-.928-.626 0-1.111.318-1.457.953-.28.535-.42 1.22-.42 2.056 0 .919.148 1.654.444 2.206.346.568.824.852 1.433.852.642 0 1.136-.292 1.482-.877zm13.56-8.85c1.284 0 2.334.414 3.149 1.241s1.222 1.951 1.222 3.372v8.097c0 .134-.041.243-.123.326-.083.084-.19.126-.321.126h-3.211c-.132 0-.239-.042-.321-.126-.083-.083-.124-.192-.124-.326v-7.195c0-.584-.152-1.057-.457-1.416-.304-.359-.712-.539-1.222-.539-.511 0-.922.18-1.235.539s-.469.832-.469 1.416v7.195c0 .134-.042.243-.124.326-.082.084-.189.126-.321.126h-3.211c-.132 0-.239-.042-.321-.126-.082-.083-.123-.192-.123-.326v-16.646c0-.133.041-.242.123-.326.082-.083.189-.125.321-.125h3.211c.132 0 .239.042.321.125.082.084.124.193.124.326v5.29c0 .084.02.134.061.15.041.017.078-.008.111-.075.676-.952 1.655-1.429 2.94-1.429zm12.719-4.588c1.301 0 2.446.272 3.434.815s1.753 1.308 2.297 2.294c.543.986.815 2.123.815 3.41v5.239c0 1.471-.383 2.724-1.149 3.76-.766 1.037-1.823 1.747-3.174 2.131-.098.051-.148.117-.148.201v1.755c0 .133-.041.242-.123.326-.083.083-.19.125-.321.125h-3.211c-.132 0-.239-.042-.321-.125-.083-.084-.124-.193-.124-.326v-1.755c0-.084-.049-.15-.148-.201-1.35-.367-2.412-1.069-3.186-2.105-.774-1.037-1.161-2.298-1.161-3.786v-5.239c0-1.287.272-2.424.815-3.41s1.309-1.751 2.297-2.294 2.124-.815 3.408-.815zm2.446 6.293c0-.819-.223-1.479-.667-1.981-.445-.501-1.038-.752-1.779-.752-.724 0-1.309.251-1.753.752-.445.502-.667 1.162-.667 1.981v5.365c0 .819.222 1.479.667 1.98.444.502 1.029.752 1.753.752.741 0 1.334-.25 1.779-.752.444-.501.667-1.161.667-1.98zm6.644 11.457c-.132 0-.239-.042-.322-.126-.082-.083-.123-.192-.123-.326v-16.646c0-.133.041-.242.123-.326.083-.083.19-.125.322-.125h3.21c.132 0 .239.042.322.125.082.084.123.193.123.326v13.362c0 .117.058.176.173.176h7.681c.132 0 .239.042.321.125.083.084.124.192.124.326v2.657c0 .134-.041.243-.124.326-.082.084-.189.126-.321.126zm-139.1286 26.998c-.2634 0-.4281-.126-.4939-.377l-.5681-2.055c-.0165-.1-.0823-.151-.1976-.151h-5.5819c-.0988 0-.1647.051-.1976.151l-.5681 2.055c-.0658.251-.2305.377-.494.377h-3.4825c-.1646 0-.2799-.046-.3458-.138-.0658-.092-.0741-.213-.0247-.364l5.1868-16.671c.0823-.251.2552-.376.5187-.376h4.3716c.28 0 .4528.125.5187.376l5.2114 16.671c.0165.034.0247.092.0247.176 0 .217-.1317.326-.3951.326zm-6.0265-5.942c0 .1.0494.15.1482.15h3.6554c.0659 0 .1112-.02.1359-.062s.0288-.088.0123-.138l-1.8771-6.669c-.0164-.083-.0452-.125-.0864-.125s-.0782.042-.1112.125l-1.8771 6.669zm17.4621 6.142c-1.35 0-2.532-.343-3.544-1.028-1.013-.685-1.733-1.629-2.161-2.833-.313-.802-.4697-1.763-.4697-2.883 0-1.119.1567-2.08.4697-2.883.411-1.17 1.127-2.085 2.148-2.745s2.207-.99 3.557-.99c1.367 0 2.569.343 3.606 1.028s1.737 1.554 2.099 2.607c.099.268.165.543.198.827v.101c0 .217-.132.351-.395.401l-3.137.476-.123.025c-.215 0-.338-.1-.371-.301l-.099-.351c-.099-.367-.313-.668-.642-.902s-.716-.351-1.161-.351c-.872 0-1.449.393-1.729 1.178-.181.468-.271 1.103-.271 1.905 0 .719.082 1.346.247 1.881.313.852.897 1.278 1.753 1.278.428 0 .795-.108 1.099-.326.305-.217.531-.535.68-.952l.024-.126c.017-.083.078-.171.186-.263.107-.092.218-.129.333-.113l3.161.502c.297.05.42.217.371.501-.033.267-.074.476-.124.627-.395 1.17-1.107 2.081-2.136 2.732-1.029.652-2.219.978-3.569.978zm12.917-13.362c1.087 0 2.075.188 2.964.564s1.589.894 2.1 1.554c.51.661.765 1.392.765 2.194v8.398c0 .134-.041.243-.123.326-.082.084-.19.126-.321.126h-3.211c-.132 0-.239-.042-.321-.126-.083-.083-.124-.192-.124-.326v-.501c0-.084-.02-.134-.061-.151-.042-.016-.087.009-.136.076-.659.819-1.721 1.228-3.186 1.228-1.301 0-2.339-.313-3.112-.94-.774-.627-1.161-1.55-1.161-2.77 0-1.287.44-2.282 1.321-2.983.881-.702 2.153-1.053 3.816-1.053h2.346c.116 0 .173-.059.173-.176v-.426c0-.451-.144-.806-.432-1.066-.288-.259-.696-.388-1.222-.388-.379 0-.704.063-.976.188s-.465.297-.581.514c-.082.117-.16.205-.234.263-.074.059-.169.079-.284.063l-3.31-.426c-.296-.034-.428-.151-.395-.351.082-.719.379-1.367.889-1.943.511-.577 1.182-1.032 2.013-1.367.832-.334 1.766-.501 2.803-.501zm-.419 10.379c.625 0 1.14-.163 1.543-.489.404-.326.605-.756.605-1.291v-.552c0-.117-.057-.175-.173-.175h-1.432c-.626 0-1.107.108-1.445.326-.338.217-.506.543-.506.977 0 .368.123.661.37.878s.593.326 1.038.326zm15.93-14.315c0-.134.041-.242.124-.326.082-.083.189-.125.321-.125h3.211c.131 0 .238.042.321.125.082.084.123.192.123.326v16.646c0 .134-.041.243-.123.326-.083.084-.19.126-.321.126h-3.211c-.132 0-.239-.042-.321-.126-.083-.083-.124-.192-.124-.326v-.601c0-.084-.02-.134-.062-.151-.041-.017-.086.009-.135.075-.626.886-1.565 1.329-2.816 1.329-1.07 0-2.058-.359-2.964-1.078-.905-.719-1.523-1.646-1.852-2.783-.264-.819-.395-1.78-.395-2.883 0-1.186.172-2.239.518-3.158.379-1.037.992-1.876 1.84-2.52.848-.643 1.799-.965 2.853-.965 1.251 0 2.19.384 2.816 1.153.049.067.094.092.135.075.042-.016.062-.066.062-.15zm-.444 12.685c.28-.535.42-1.22.42-2.055 0-.92-.149-1.655-.445-2.207-.346-.568-.823-.852-1.433-.852-.642 0-1.136.293-1.481.878-.297.551-.445 1.278-.445 2.181 0 .852.14 1.546.42 2.08.346.619.848.928 1.506.928.626 0 1.112-.318 1.458-.953zm13.09 1.078c.51 0 .984-.079 1.42-.238.437-.159.803-.372 1.099-.639.099-.117.206-.176.321-.176.099 0 .198.059.297.176l1.531 1.855c.099.117.148.226.148.326 0 .117-.049.226-.148.326-.56.601-1.268 1.069-2.124 1.404-.856.334-1.77.501-2.742.501-1.119 0-2.111-.205-2.976-.614-.864-.41-1.576-.982-2.136-1.717-.906-1.17-1.359-2.658-1.359-4.463 0-.802.091-1.554.272-2.256.362-1.304 1.07-2.352 2.124-3.146s2.289-1.191 3.705-1.191c1.647 0 2.976.518 3.989 1.554 1.012 1.036 1.675 2.482 1.988 4.337.066.468.115.978.148 1.53 0 .3-.148.451-.444.451h-7.459c-.05 0-.095.017-.136.05s-.054.083-.037.15l.148.502c.165.401.453.714.864.94.412.225.914.338 1.507.338zm-.642-6.267c-.84 0-1.408.409-1.704 1.228-.066.167-.107.293-.124.376v.051c0 .1.058.15.173.15h3.384c.066 0 .111-.021.136-.063.024-.042.028-.088.012-.138l-.099-.326c-.132-.401-.346-.714-.642-.94-.296-.225-.675-.338-1.136-.338zm22.525-3.56c1.284 0 2.289.401 3.013 1.203.725.803 1.087 1.931 1.087 3.385v8.122c0 .134-.041.243-.123.326-.083.084-.19.126-.321.126h-3.187c-.131 0-.238-.042-.321-.126-.082-.083-.123-.192-.123-.326v-7.22c0-.568-.144-1.032-.432-1.391-.289-.359-.671-.539-1.149-.539-.477 0-.868.175-1.173.526s-.457.819-.457 1.404v7.22c0 .134-.041.243-.124.326-.082.084-.189.126-.321.126h-3.21c-.132 0-.239-.042-.322-.126-.082-.083-.123-.192-.123-.326v-7.22c0-.568-.152-1.032-.457-1.391s-.696-.539-1.173-.539c-.445 0-.815.142-1.112.426-.296.284-.477.66-.543 1.128v7.596c0 .134-.041.243-.123.326-.083.084-.19.126-.322.126h-3.21c-.132 0-.239-.042-.321-.126-.083-.083-.124-.192-.124-.326v-12.058c0-.134.041-.242.124-.326.082-.084.189-.125.321-.125h3.21c.132 0 .239.041.322.125.082.084.123.192.123.326v.877c0 .084.021.13.062.138.041.009.086-.021.136-.088.658-1.052 1.696-1.579 3.112-1.579.807 0 1.519.18 2.136.539.618.359 1.099.882 1.445 1.567.033.067.07.096.111.088.041-.009.078-.046.111-.113.692-1.387 1.844-2.081 3.458-2.081zm6.199 18.15c-.049 0-.09-.041-.123-.125s-.049-.192-.049-.326v-2.507c0-.134.016-.242.049-.326.033-.083.066-.125.099-.125h.123c1.054 0 1.803-.092 2.248-.276.444-.184.724-.576.84-1.178.016-.067.016-.142 0-.226l-3.903-12.359c-.016-.05-.024-.109-.024-.175 0-.218.123-.326.37-.326h3.458c.132 0 .243.037.333.112.091.076.144.172.161.289l1.605 6.543c.033.067.07.1.111.1.042 0 .07-.033.087-.1l1.556-6.543c.016-.117.07-.213.16-.289.091-.075.202-.112.334-.112h3.433c.165 0 .28.046.346.137.066.092.074.214.024.364l-4.1 12.71c-.411 1.254-.843 2.202-1.296 2.846-.453.643-1.112 1.119-1.976 1.429-.865.309-2.095.463-3.693.463zm-161.938-22.975c3.9023 7.964 12.008 17.018 24.3205 27.095 13.2768-10.672 21.725-19.739 25.3294-27.095 3.5453-7.236 5.02-18.18 4.3536-32.7952h-59.3423c-.29946 14.0182 1.4969 24.9542 5.3388 32.7952zm57.6016-36.652.1026 1.8181c.9112 16.1379-.613 28.3079-4.6521 36.5509-4.0198 8.204-13.2046 17.952-27.5708 29.359l-1.1797.937-1.1727-.946c-13.3687-10.78-22.2137-20.538-26.53115-29.35-4.33189-8.841-6.20704-21.005-5.68263-36.5068l.063-1.8622z" fill="#267280"/><path d="m20.9548 115.96c-1.6537-.542-2.8498-2.118-2.8498-3.977 0-2.307 1.843-4.178 4.1164-4.178.9123 0 1.7553.301 2.4377.811l9.4553-5.702c-.115-.385-.1769-.793-.1769-1.216 0-2.3073 1.843-4.1779 4.1165-4.1779 2.2734 0 4.1164 1.8706 4.1164 4.1779 0 .457-.0721.896-.2054 1.308l9.0602 5.463c.6422-.42 1.407-.664 2.228-.664 2.2735 0 4.1165 1.871 4.1165 4.178 0 1.612-.8994 3.011-2.2166 3.708v9.94c1.3172.697 2.2166 2.096 2.2166 3.708 0 2.308-1.843 4.178-4.1165 4.178-1.0708 0-2.0461-.415-2.7783-1.095l-8.3909 5.06c.0567.277.0864.563.0864.856 0 2.308-1.843 4.179-4.1164 4.179-2.2735 0-4.1165-1.871-4.1165-4.179 0-.386.0517-.76.1485-1.116l-8.2663-4.985c-.7488.789-1.8004 1.28-2.965 1.28-2.2734 0-4.1164-1.87-4.1164-4.178 0-1.612.8993-3.011 2.2165-3.708zm1.8999.152v9.049c2.2735 0 4.1165 1.87 4.1165 4.178 0 .462-.074.907-.2107 1.323l8.1854 4.937c.7547-.882 1.8673-1.439 3.1081-1.439 1.3323 0 2.5167.642 3.2691 1.639l8.113-4.893c-.193-.484-.2993-1.013-.2993-1.567 0-2.308 1.843-4.178 4.1164-4.178v-9c-2.2734 0-4.1164-1.87-4.1164-4.178 0-.788.2151-1.526.589-2.155l-8.6952-5.244c-.7496.797-1.806 1.293-2.9766 1.293-1.2046 0-2.2883-.526-3.041-1.363l-9.1503 5.519c.3034.582.4752 1.246.4752 1.95 0 2.089-1.5104 3.82-3.4832 4.129z" fill="#e61da4"/><path d="m39.7741 129.338c-.5671.02-1.1408.03-1.7201.03s-1.153-.01-1.7201-.03c.5714.708 1.1468 1.372 1.7201 1.985.5732-.613 1.1487-1.277 1.7201-1.985zm2.5204-.156c-.9448 1.279-1.9168 2.449-2.8957 3.493 3.1099 2.924 6.0093 4.245 7.6797 3.268 1.5855-.927 1.9548-3.86 1.1793-7.738-1.8219.454-3.8301.787-5.9633.977zm-14.4443-.977c-.7755 3.878-.4063 6.811 1.1792 7.738 1.6704.977 4.5698-.344 7.6798-3.268-.9789-1.044-1.951-2.214-2.8958-3.493-2.1331-.19-4.1414-.523-5.9632-.977zm-1.8249-.517c-4.8046-1.531-7.9203-4.001-7.9203-6.951 0-3.003 3.2291-5.509 8.182-7.033-1.3046-5.294-.8303-9.552 1.7925-11.086 2.532-1.48 6.2349.066 9.9745 3.585 3.7396-3.519 7.4424-5.065 9.9745-3.585 2.6227 1.534 3.097 5.792 1.7924 11.086 4.9529 1.524 8.1821 4.03 8.1821 7.033 0 2.95-3.1157 5.42-7.9204 6.951.9604 4.749.3733 8.502-2.0541 9.921-2.5321 1.481-6.2349-.065-9.9745-3.585-3.7396 3.52-7.4425 5.066-9.9745 3.585-2.4274-1.419-3.0145-5.172-2.0542-9.921zm13.3735-20.135c1.312 1.398 2.6117 3.025 3.8499 4.835 1.6781.186 3.2702.462 4.7444.817 1.1015-4.458.8283-7.901-.9146-8.92-1.6704-.977-4.5698.344-7.6797 3.268zm-6.5395 4.835c1.2382-1.81 2.5379-3.437 3.8499-4.835-3.11-2.924-6.0094-4.245-7.6798-3.268-1.7429 1.019-2.016 4.462-.9145 8.92 1.4742-.355 3.0662-.631 4.7444-.817zm2.4756-.206c.8895-.05 1.7972-.075 2.7191-.075.9218 0 1.8296.025 2.7191.075-.8954-1.207-1.81-2.305-2.7191-3.277-.9092.972-1.8237 2.07-2.7191 3.277zm5.9541 15.153c.8541-1.201 1.6862-2.501 2.4742-3.883.6382-1.119 1.2154-2.237 1.7308-3.338-.5154-1.102-1.0926-2.219-1.7308-3.338-.5073-.89-1.0328-1.746-1.5708-2.563-1.3278-.123-2.7131-.188-4.1384-.188s-2.8106.065-4.1385.188c-.5379.817-1.0634 1.673-1.5708 2.563-.6381 1.119-1.2153 2.236-1.7307 3.338.5154 1.101 1.0926 2.219 1.7307 3.338.7881 1.382 1.6201 2.682 2.4743 3.883 1.0488.075 2.1299.115 3.235.115s2.1861-.04 3.235-.115zm2.464-.248c1.4439-.188 2.8056-.445 4.06-.757-.3409-1.251-.7849-2.573-1.3301-3.937-.3426.669-.7056 1.341-1.0884 2.013-.5294.928-1.0782 1.824-1.6415 2.681zm-12.2652-12.577c-.9974.152-1.951.338-2.8521.552.2805.897.6105 1.825.9894 2.773.3426-.67.7056-1.341 1.0884-2.013.2538-.445.5121-.883.7743-1.312zm-3.1928 11.82c1.2544.312 2.6161.569 4.0599.757-.5633-.857-1.112-1.753-1.6414-2.681-.3828-.672-.7458-1.344-1.0884-2.013-.5452 1.364-.9892 2.686-1.3301 3.937zm-1.8237-.517c.4922-1.813 1.1842-3.734 2.062-5.699-.6955-1.558-1.2744-3.087-1.7297-4.557-4.1501 1.273-6.7987 3.19-6.7987 5.18 0 1.937 2.5077 3.804 6.4664 5.076zm21.001-10.751c-.9011-.214-1.8548-.4-2.8521-.552.2622.429.5204.867.7743 1.312.3828.672.7458 1.343 1.0884 2.013.3789-.948.7089-1.876.9894-2.773zm1.832.495c-.4552 1.47-1.0341 2.999-1.7296 4.557.8777 1.965 1.5697 3.886 2.062 5.699 3.9587-1.272 6.4664-3.139 6.4664-5.076 0-1.99-2.6486-3.907-6.7988-5.18zm-11.2503 7.172c-1.6256 0-2.9433-1.338-2.9433-2.988s1.3177-2.987 2.9433-2.987c1.6255 0 2.9433 1.337 2.9433 2.987s-1.3178 2.988-2.9433 2.988z" fill="#00d2ff"/></svg>