<svg fill="none" height="250" viewBox="0 0 250 250" width="250" xmlns="http://www.w3.org/2000/svg"><g fill="#e82127"><path d="m207.107 121.575v18.389h5.879v-12.243h21.396v12.243h5.875v-18.357z"/><path d="m212.331 115.627h22.605c3.14-.626 5.475-3.406 6.133-6.094h-34.87c.651 2.689 3.021 5.468 6.132 6.094z"/><path d="m189.303 139.976c2.964-1.261 4.558-3.441 5.169-5.992h-26.367l.016-24.436-5.91.016v30.412z"/><path d="m118.257 115.545h20.877c3.147-.918 5.79-3.323 6.434-5.989h-33.163v17.972h27.143v6.306l-21.291.017c-3.336.933-6.166 3.181-7.577 6.149l1.725-.032h32.975v-18.415h-27.123z"/><path d="m66.7199 115.603h22.5975c3.144-.629 5.4806-3.406 6.1357-6.097h-34.8689c.6509 2.691 3.0218 5.468 6.1357 6.097"/><path d="m66.7199 127.622h22.5975c3.144-.622 5.4806-3.402 6.1357-6.095h-34.8689c.6509 2.694 3.0218 5.473 6.1357 6.095"/><path d="m66.7199 139.972h22.5975c3.144-.627 5.4806-3.405 6.1357-6.095h-34.8689c.6509 2.691 3.0218 5.468 6.1357 6.095"/><path d="m7.93091 109.58c.67932 2.658 2.97329 5.374 6.12059 6.055h9.5122l.4852.192v24.077h5.9399v-24.077l.5396-.192h9.5206c3.1824-.823 5.427-3.397 6.0946-6.055v-.059h-38.21269z"/></g></svg>