<svg xmlns="http://www.w3.org/2000/svg" viewBox="0 0 1000 480" role="img" aria-label="A phone showing a spinner, connected by dotted lines to a cloud API and a Postgres database that holds the truth. The signal drops, the phone side of the line breaks, and the spinner keeps going: isPending forever.">
<title>Classic: server holds the truth</title>
<defs>
  <pattern id="hatch" width="5" height="5" patternUnits="userSpaceOnUse" patternTransform="rotate(45)">
    <line x1="0" y1="0" x2="0" y2="5" stroke="var(--ink)" stroke-width="0.9" opacity="0.32"/>
  </pattern>
  <pattern id="hatchm" width="5" height="5" patternUnits="userSpaceOnUse" patternTransform="rotate(45)">
    <line x1="0" y1="0" x2="0" y2="5" stroke="var(--faint)" stroke-width="0.9" opacity="0.5"/>
  </pattern>
</defs>
<style>
  @import url('https://fonts.googleapis.com/css2?family=Inter:wght@400;500;700&amp;family=Fira+Code:wght@400;500&amp;display=swap');
  :root {
    --bg: #ffffff; --ink: #1A1A17; --muted: #8C8A80; --faint: #B4B1A6; --rule: #DCD9D0; --accent: #2440FF;
    color-scheme: light dark;
  }
  @media (prefers-color-scheme: dark) {
    :root { --bg: #051626; --ink: #F2EFE8; --muted: #8FA0B3; --faint: #3A4A5C; --rule: #1E3346; --accent: #8B9BFF; }
  }
  svg { background: var(--bg); }
  /* shared by every scene: canvas 1000 × 480, phone 190 × 370 */
  text { font-family: 'Inter', -apple-system, BlinkMacSystemFont, 'Segoe UI', Helvetica, Arial, sans-serif; fill: var(--ink); }
  .lab  { font-size: 13px; letter-spacing: 1.3px; }
  .lab2 { font-size: 13px; letter-spacing: .4px; fill: var(--muted); }
  .big  { font-size: 15px; font-weight: 700; letter-spacing: 1.6px; }
  .hd   { font-size: 17px; font-weight: 700; }
  .row  { font-size: 15px; font-weight: 500; }
  .val  { font-size: 15px; font-weight: 500; }
  .code { font-family: 'Fira Code', ui-monospace, SFMono-Regular, Menlo, monospace; font-size: 13px; letter-spacing: 0; font-variant-ligatures: none; }
  /* colour last, so it wins over the type classes */
  .ink { fill: var(--ink); }
  .mut { fill: var(--muted); }
  .fnt { fill: var(--faint); }
  .acc { fill: var(--accent); }
  .b   { font-weight: 700; }
  .draw { fill: none; stroke-linecap: round; stroke-linejoin: round; }
  .net  { fill: none; stroke-linecap: round; stroke-dasharray: 1.2 7.3; }
</style>
<rect width="1000" height="480" fill="var(--bg)"/>

<!-- the phone only shows a spinner: it waits for the server -->

<g transform="translate(330 60)">
  <rect x="7" y="7" width="190" height="370" rx="26" fill="url(#hatch)" stroke="var(--ink)" stroke-width="1.2"/>
  <rect width="190" height="370" rx="26" fill="var(--bg)" stroke="var(--ink)" stroke-width="1.7"/>
  <rect x="10" y="12" width="170" height="346" rx="16" fill="none" stroke="var(--ink)" stroke-width="1.1"/>
  <rect x="75" y="22" width="40" height="11" rx="5.5" fill="var(--ink)"/>
  <path d="M191 70 V112 M-1 85 V112 M-1 124 V151" stroke="var(--ink)" stroke-width="3"/>
  <circle cx="95" cy="186" r="15" fill="none" stroke="var(--ink)" stroke-width="2.4" stroke-dasharray="63 31.5" stroke-linecap="round">
    <animateTransform attributeName="transform" type="rotate" from="0 95 186" to="360 95 186" dur="1.1s" repeatCount="indefinite"/>
  </circle>
  <g opacity="0">
    <animate attributeName="opacity" from="0" to="1" begin="7.2s" dur="0.15s" fill="freeze"/>
    <rect x="18" y="29" width="2.2" height="3" fill="var(--faint)"/>
    <rect x="21.5" y="27" width="2.2" height="5" fill="var(--faint)"/>
    <rect x="25" y="25" width="2.2" height="7" fill="var(--faint)"/>
    <rect x="28.5" y="23" width="2.2" height="9" fill="var(--faint)"/>
    <path d="M33 23 l6 6 M39 23 l-6 6" stroke="var(--ink)" stroke-width="1.2"/>
  </g>
  <g>
    <animate attributeName="opacity" from="1" to="0" begin="7.2s" dur="0.15s" fill="freeze"/>
    <rect x="18" y="29" width="2.2" height="3" fill="var(--ink)"/>
    <rect x="21.5" y="27" width="2.2" height="5" fill="var(--ink)"/>
    <rect x="25" y="25" width="2.2" height="7" fill="var(--ink)"/>
    <rect x="28.5" y="23" width="2.2" height="9" fill="var(--ink)"/>
  </g>
</g>

<!-- the server side: cloud and database hold the truth -->

<clipPath id="cloud1"><path d="M668 268 C630 268 634 220 672 220 C672 178 734 172 750 204 C772 178 830 194 822 230 C854 232 852 268 820 268 Z"/></clipPath>
<path d="M668 268 C630 268 634 220 672 220 C672 178 734 172 750 204 C772 178 830 194 822 230 C854 232 852 268 820 268 Z" fill="var(--bg)" stroke="var(--ink)" stroke-width="1.6"/>
<rect x="628" y="254" width="230" height="16" fill="url(#hatch)" clip-path="url(#cloud1)"/>
<text x="738" y="292" class="lab" text-anchor="middle">API</text>

<path d="M890 202 V302 A40 13.6 0 0 0 970 302 V202" fill="var(--bg)" stroke="var(--ink)" stroke-width="1.6"/>
<path d="M890 202 V302 A40 13.6 0 0 0 906.8 314.5 V214.5 Z" fill="url(#hatch)"/>
<path d="M890 238 A40 13.6 0 0 0 970 238 M890 270 A40 13.6 0 0 0 970 270" fill="none" stroke="var(--ink)"/>
<ellipse cx="930" cy="202" rx="40" ry="13.6" fill="var(--bg)" stroke="var(--ink)" stroke-width="1.6"/>
<text x="930" y="337.6" class="lab" text-anchor="middle">POSTGRES</text>

<path class="net" d="M851 236 H888" stroke="var(--accent)" stroke-width="2.6">
  <animate attributeName="stroke-dashoffset" values="0;-8.5" dur="0.8s" repeatCount="indefinite"/>
</path>

<path class="net" d="M888 258 H851" stroke="var(--ink)" stroke-width="2.6">
  <animate attributeName="stroke-dashoffset" values="0;-8.5" dur="0.8s" repeatCount="indefinite"/>
</path>

<!-- phone ↔ API: connected, then the signal drops -->

<g>
  <animate attributeName="opacity" from="1" to="0" begin="7.2s" dur="0.15s" fill="freeze"/>
  <path class="net" d="M528 236 H634" stroke="var(--accent)" stroke-width="2.6">
    <animate attributeName="stroke-dashoffset" values="0;-8.5" dur="0.8s" repeatCount="indefinite"/>
  </path>
  <path class="net" d="M634 258 H528" stroke="var(--ink)" stroke-width="2.6">
    <animate attributeName="stroke-dashoffset" values="0;-8.5" dur="0.8s" repeatCount="indefinite"/>
  </path>
</g>

<g opacity="0">
  <animate attributeName="opacity" from="0" to="1" begin="7.2s" dur="0.15s" fill="freeze"/>
  <path class="net" d="M528 236 H634" stroke="var(--faint)" stroke-width="2.2"></path>
  <path class="net" d="M634 258 H528" stroke="var(--faint)" stroke-width="2.2"></path>
  <rect x="565" y="240" width="30" height="12" fill="var(--bg)"/>
  <path d="M574 240 l12 12 M586 240 l-12 12" stroke="var(--ink)" stroke-width="1.4"/>
  <text x="580" y="226" class="lab" text-anchor="middle">NO SIGNAL</text>
</g>

<circle cx="930" cy="188" r="2.6" fill="var(--ink)"/>
<path d="M930 188 V144" fill="none" stroke="var(--ink)" stroke-width="1"/>
<text x="922" y="148.5" class="lab" text-anchor="end">SOURCE OF TRUTH</text>

<circle cx="580" cy="266" r="2.6" fill="var(--ink)"/>
<path d="M580 266 V388" fill="none" stroke="var(--ink)" stroke-width="1"/>
<text x="588" y="392.5" class="lab" text-anchor="start">EVERY TAP WAITS HERE</text>
<text x="588" y="410.5" class="lab2" text-anchor="start">reads and writes</text>

<g>
  <animate attributeName="opacity" from="1" to="0" begin="7.2s" dur="0.2s" fill="freeze"/>
  <circle cx="406" cy="246" r="2.6" fill="var(--ink)"/>
  <path d="M406 246 H290" fill="none" stroke="var(--ink)" stroke-width="1"/>
  <text x="282" y="250.5" class="lab" text-anchor="end"><tspan class="code">isPending: true</tspan></text>
</g>

<g opacity="0">
  <animate attributeName="opacity" from="0" to="1" begin="7.2s" dur="0.2s" fill="freeze"/>
  <circle cx="406" cy="246" r="2.6" fill="var(--ink)"/>
  <path d="M406 246 H290" fill="none" stroke="var(--ink)" stroke-width="1"/>
  <text x="282" y="250.5" class="lab" text-anchor="end"><tspan class="code acc">isPending: forever</tspan></text>
</g>
</svg>
