<svg xmlns="http://www.w3.org/2000/svg" viewBox="120 96 770 400" role="img" aria-label="Benchmark bar chart, lower is faster: Legend State 1.02, Jotai 1.41, MobX 1.49, Recoil 1.53, Redux 1.55, Zustand 1.69, Valtio 1.82">
<title>React state libraries benchmark</title>
<defs>
  <pattern id="hatch" width="5" height="5" patternUnits="userSpaceOnUse" patternTransform="rotate(45)">
    <line x1="0" y1="0" x2="0" y2="5" stroke="var(--ink)" stroke-width="0.9" opacity="0.32"/>
  </pattern>
  <pattern id="hatcha" width="5" height="5" patternUnits="userSpaceOnUse" patternTransform="rotate(45)">
    <line x1="0" y1="0" x2="0" y2="5" stroke="var(--accent)" stroke-width="0.9" opacity="0.6"/>
  </pattern>
</defs>
<style>
  @import url('https://fonts.googleapis.com/css2?family=Inter:wght@400;500;700&amp;display=swap');
  :root {
    --bg: #ffffff; --ink: #1A1A17; --muted: #8C8A80; --faint: #B4B1A6; --rule: #DCD9D0; --accent: #2440FF;
    color-scheme: light dark;
  }
  @media (prefers-color-scheme: dark) {
    :root { --bg: #051626; --ink: #F2EFE8; --muted: #8FA0B3; --faint: #3A4A5C; --rule: #1E3346; --accent: #8B9BFF; }
  }
  svg { background: var(--bg); }
  text { font-family: 'Inter', -apple-system, BlinkMacSystemFont, 'Segoe UI', Helvetica, Arial, sans-serif; }
  .ser { fill: var(--ink); font-weight: 500; }
  .mo  { font-weight: 400; }
  .nm  { font-size: 16px; text-anchor: end; }
  .val { font-size: 15px; font-weight: 700; fill: var(--ink); font-variant-numeric: tabular-nums; }
  .sub { font-size: 13px; fill: var(--muted); letter-spacing: 1.3px; }
  .lab { font-size: 13px; fill: var(--ink); letter-spacing: 1.3px; }
  .lab2{ font-size: 13px; fill: var(--muted); letter-spacing: .4px; }
</style>
<rect x="120" y="96" width="770" height="400" fill="var(--bg)"/><line x1="310" y1="124" x2="310" y2="456" stroke="var(--rule)" stroke-width="1" stroke-dasharray="2 4"/><text x="310" y="474" class="mo lab2" text-anchor="middle">1.0</text><line x1="430" y1="124" x2="430" y2="456" stroke="var(--rule)" stroke-width="1" stroke-dasharray="2 4"/><text x="430" y="474" class="mo lab2" text-anchor="middle">1.2</text><line x1="550" y1="124" x2="550" y2="456" stroke="var(--rule)" stroke-width="1" stroke-dasharray="2 4"/><text x="550" y="474" class="mo lab2" text-anchor="middle">1.4</text><line x1="670" y1="124" x2="670" y2="456" stroke="var(--rule)" stroke-width="1" stroke-dasharray="2 4"/><text x="670" y="474" class="mo lab2" text-anchor="middle">1.6</text><line x1="790" y1="124" x2="790" y2="456" stroke="var(--rule)" stroke-width="1" stroke-dasharray="2 4"/><text x="790" y="474" class="mo lab2" text-anchor="middle">1.8</text><text x="790" y="112" class="mo sub" text-anchor="end">LOWER IS FASTER</text><text x="234" y="154.5" class="ser nm" fill="var(--accent)">Legend State</text><g opacity="0"><path d="M255 155 L255 155 A12 12 0 0 1 267 143 L315 143 A12 12 0 0 1 327 155 L327 155 A12 12 0 0 1 315 167 L267 167 A12 12 0 0 1 255 155 Z" fill="url(#hatcha)" stroke="var(--accent)" stroke-width="1" opacity="0.8"/><path d="M250 150 L250 150 A12 12 0 0 1 262 138 L310 138 A12 12 0 0 1 322 150 L322 150 A12 12 0 0 1 310 162 L262 162 A12 12 0 0 1 250 150 Z" fill="var(--bg)"/><animate attributeName="opacity" from="0" to="1" begin="1.23s" dur="0.35s" fill="freeze"/></g><path d="M250 150 L250 150 A12 12 0 0 1 262 138 L310 138 A12 12 0 0 1 322 150 L322 150" pathLength="1" stroke-dasharray="1 1" stroke-dashoffset="1" fill="none" stroke="var(--accent)" stroke-width="2.2" stroke-linecap="round" stroke-linejoin="round"><animate attributeName="stroke-dashoffset" values="1;0" begin="0.60s" dur="0.63s" fill="freeze" calcMode="spline" keyTimes="0;1" keySplines=".45 0 .25 1"/></path><path d="M250 150 L250 150 A12 12 0 0 0 262 162 L310 162 A12 12 0 0 0 322 150 L322 150" pathLength="1" stroke-dasharray="1 1" stroke-dashoffset="1" fill="none" stroke="var(--accent)" stroke-width="2.2" stroke-linecap="round" stroke-linejoin="round"><animate attributeName="stroke-dashoffset" values="1;0" begin="0.60s" dur="0.63s" fill="freeze" calcMode="spline" keyTimes="0;1" keySplines=".45 0 .25 1"/></path><text x="340" y="154.5" class="mo val" opacity="0" fill="var(--accent)">1.02<animate attributeName="opacity" from="0" to="1" begin="1.23s" dur="0.35s" fill="freeze"/></text><text x="234" y="200.5" class="ser nm">Jotai</text><g opacity="0"><path d="M255 201 L255 201 A12 12 0 0 1 267 189 L549 189 A12 12 0 0 1 561 201 L561 201 A12 12 0 0 1 549 213 L267 213 A12 12 0 0 1 255 201 Z" fill="url(#hatch)" stroke="var(--ink)" stroke-width="1" opacity="0.8"/><path d="M250 196 L250 196 A12 12 0 0 1 262 184 L544 184 A12 12 0 0 1 556 196 L556 196 A12 12 0 0 1 544 208 L262 208 A12 12 0 0 1 250 196 Z" fill="var(--bg)"/><animate attributeName="opacity" from="0" to="1" begin="1.98s" dur="0.35s" fill="freeze"/></g><path d="M250 196 L250 196 A12 12 0 0 1 262 184 L544 184 A12 12 0 0 1 556 196 L556 196" pathLength="1" stroke-dasharray="1 1" stroke-dashoffset="1" fill="none" stroke="var(--ink)" stroke-width="1.6" stroke-linecap="round" stroke-linejoin="round"><animate attributeName="stroke-dashoffset" values="1;0" begin="0.92s" dur="1.06s" fill="freeze" calcMode="spline" keyTimes="0;1" keySplines=".45 0 .25 1"/></path><path d="M250 196 L250 196 A12 12 0 0 0 262 208 L544 208 A12 12 0 0 0 556 196 L556 196" pathLength="1" stroke-dasharray="1 1" stroke-dashoffset="1" fill="none" stroke="var(--ink)" stroke-width="1.6" stroke-linecap="round" stroke-linejoin="round"><animate attributeName="stroke-dashoffset" values="1;0" begin="0.92s" dur="1.06s" fill="freeze" calcMode="spline" keyTimes="0;1" keySplines=".45 0 .25 1"/></path><text x="574" y="200.5" class="mo val" opacity="0">1.41<animate attributeName="opacity" from="0" to="1" begin="1.98s" dur="0.35s" fill="freeze"/></text><text x="234" y="246.5" class="ser nm">MobX</text><g opacity="0"><path d="M255 247 L255 247 A12 12 0 0 1 267 235 L597 235 A12 12 0 0 1 609 247 L609 247 A12 12 0 0 1 597 259 L267 259 A12 12 0 0 1 255 247 Z" fill="url(#hatch)" stroke="var(--ink)" stroke-width="1" opacity="0.8"/><path d="M250 242 L250 242 A12 12 0 0 1 262 230 L592 230 A12 12 0 0 1 604 242 L604 242 A12 12 0 0 1 592 254 L262 254 A12 12 0 0 1 250 242 Z" fill="var(--bg)"/><animate attributeName="opacity" from="0" to="1" begin="2.39s" dur="0.35s" fill="freeze"/></g><path d="M250 242 L250 242 A12 12 0 0 1 262 230 L592 230 A12 12 0 0 1 604 242 L604 242" pathLength="1" stroke-dasharray="1 1" stroke-dashoffset="1" fill="none" stroke="var(--ink)" stroke-width="1.6" stroke-linecap="round" stroke-linejoin="round"><animate attributeName="stroke-dashoffset" values="1;0" begin="1.24s" dur="1.15s" fill="freeze" calcMode="spline" keyTimes="0;1" keySplines=".45 0 .25 1"/></path><path d="M250 242 L250 242 A12 12 0 0 0 262 254 L592 254 A12 12 0 0 0 604 242 L604 242" pathLength="1" stroke-dasharray="1 1" stroke-dashoffset="1" fill="none" stroke="var(--ink)" stroke-width="1.6" stroke-linecap="round" stroke-linejoin="round"><animate attributeName="stroke-dashoffset" values="1;0" begin="1.24s" dur="1.15s" fill="freeze" calcMode="spline" keyTimes="0;1" keySplines=".45 0 .25 1"/></path><text x="622" y="246.5" class="mo val" opacity="0">1.49<animate attributeName="opacity" from="0" to="1" begin="2.39s" dur="0.35s" fill="freeze"/></text><text x="234" y="292.5" class="ser nm">Recoil</text><g opacity="0"><path d="M255 293 L255 293 A12 12 0 0 1 267 281 L621 281 A12 12 0 0 1 633 293 L633 293 A12 12 0 0 1 621 305 L267 305 A12 12 0 0 1 255 293 Z" fill="url(#hatch)" stroke="var(--ink)" stroke-width="1" opacity="0.8"/><path d="M250 288 L250 288 A12 12 0 0 1 262 276 L616 276 A12 12 0 0 1 628 288 L628 288 A12 12 0 0 1 616 300 L262 300 A12 12 0 0 1 250 288 Z" fill="var(--bg)"/><animate attributeName="opacity" from="0" to="1" begin="2.75s" dur="0.35s" fill="freeze"/></g><path d="M250 288 L250 288 A12 12 0 0 1 262 276 L616 276 A12 12 0 0 1 628 288 L628 288" pathLength="1" stroke-dasharray="1 1" stroke-dashoffset="1" fill="none" stroke="var(--ink)" stroke-width="1.6" stroke-linecap="round" stroke-linejoin="round"><animate attributeName="stroke-dashoffset" values="1;0" begin="1.56s" dur="1.19s" fill="freeze" calcMode="spline" keyTimes="0;1" keySplines=".45 0 .25 1"/></path><path d="M250 288 L250 288 A12 12 0 0 0 262 300 L616 300 A12 12 0 0 0 628 288 L628 288" pathLength="1" stroke-dasharray="1 1" stroke-dashoffset="1" fill="none" stroke="var(--ink)" stroke-width="1.6" stroke-linecap="round" stroke-linejoin="round"><animate attributeName="stroke-dashoffset" values="1;0" begin="1.56s" dur="1.19s" fill="freeze" calcMode="spline" keyTimes="0;1" keySplines=".45 0 .25 1"/></path><text x="646" y="292.5" class="mo val" opacity="0">1.53<animate attributeName="opacity" from="0" to="1" begin="2.75s" dur="0.35s" fill="freeze"/></text><text x="234" y="338.5" class="ser nm">Redux</text><g opacity="0"><path d="M255 339 L255 339 A12 12 0 0 1 267 327 L633 327 A12 12 0 0 1 645 339 L645 339 A12 12 0 0 1 633 351 L267 351 A12 12 0 0 1 255 339 Z" fill="url(#hatch)" stroke="var(--ink)" stroke-width="1" opacity="0.8"/><path d="M250 334 L250 334 A12 12 0 0 1 262 322 L628 322 A12 12 0 0 1 640 334 L640 334 A12 12 0 0 1 628 346 L262 346 A12 12 0 0 1 250 334 Z" fill="var(--bg)"/><animate attributeName="opacity" from="0" to="1" begin="3.09s" dur="0.35s" fill="freeze"/></g><path d="M250 334 L250 334 A12 12 0 0 1 262 322 L628 322 A12 12 0 0 1 640 334 L640 334" pathLength="1" stroke-dasharray="1 1" stroke-dashoffset="1" fill="none" stroke="var(--ink)" stroke-width="1.6" stroke-linecap="round" stroke-linejoin="round"><animate attributeName="stroke-dashoffset" values="1;0" begin="1.88s" dur="1.22s" fill="freeze" calcMode="spline" keyTimes="0;1" keySplines=".45 0 .25 1"/></path><path d="M250 334 L250 334 A12 12 0 0 0 262 346 L628 346 A12 12 0 0 0 640 334 L640 334" pathLength="1" stroke-dasharray="1 1" stroke-dashoffset="1" fill="none" stroke="var(--ink)" stroke-width="1.6" stroke-linecap="round" stroke-linejoin="round"><animate attributeName="stroke-dashoffset" values="1;0" begin="1.88s" dur="1.22s" fill="freeze" calcMode="spline" keyTimes="0;1" keySplines=".45 0 .25 1"/></path><text x="658" y="338.5" class="mo val" opacity="0">1.55<animate attributeName="opacity" from="0" to="1" begin="3.09s" dur="0.35s" fill="freeze"/></text><text x="234" y="384.5" class="ser nm">Zustand</text><g opacity="0"><path d="M255 385 L255 385 A12 12 0 0 1 267 373 L717 373 A12 12 0 0 1 729 385 L729 385 A12 12 0 0 1 717 397 L267 397 A12 12 0 0 1 255 385 Z" fill="url(#hatch)" stroke="var(--ink)" stroke-width="1" opacity="0.8"/><path d="M250 380 L250 380 A12 12 0 0 1 262 368 L712 368 A12 12 0 0 1 724 380 L724 380 A12 12 0 0 1 712 392 L262 392 A12 12 0 0 1 250 380 Z" fill="var(--bg)"/><animate attributeName="opacity" from="0" to="1" begin="3.57s" dur="0.35s" fill="freeze"/></g><path d="M250 380 L250 380 A12 12 0 0 1 262 368 L712 368 A12 12 0 0 1 724 380 L724 380" pathLength="1" stroke-dasharray="1 1" stroke-dashoffset="1" fill="none" stroke="var(--ink)" stroke-width="1.6" stroke-linecap="round" stroke-linejoin="round"><animate attributeName="stroke-dashoffset" values="1;0" begin="2.20s" dur="1.37s" fill="freeze" calcMode="spline" keyTimes="0;1" keySplines=".45 0 .25 1"/></path><path d="M250 380 L250 380 A12 12 0 0 0 262 392 L712 392 A12 12 0 0 0 724 380 L724 380" pathLength="1" stroke-dasharray="1 1" stroke-dashoffset="1" fill="none" stroke="var(--ink)" stroke-width="1.6" stroke-linecap="round" stroke-linejoin="round"><animate attributeName="stroke-dashoffset" values="1;0" begin="2.20s" dur="1.37s" fill="freeze" calcMode="spline" keyTimes="0;1" keySplines=".45 0 .25 1"/></path><text x="742" y="384.5" class="mo val" opacity="0">1.69<animate attributeName="opacity" from="0" to="1" begin="3.57s" dur="0.35s" fill="freeze"/></text><text x="234" y="430.5" class="ser nm">Valtio</text><g opacity="0"><path d="M255 431 L255 431 A12 12 0 0 1 267 419 L795 419 A12 12 0 0 1 807 431 L807 431 A12 12 0 0 1 795 443 L267 443 A12 12 0 0 1 255 431 Z" fill="url(#hatch)" stroke="var(--ink)" stroke-width="1" opacity="0.8"/><path d="M250 426 L250 426 A12 12 0 0 1 262 414 L790 414 A12 12 0 0 1 802 426 L802 426 A12 12 0 0 1 790 438 L262 438 A12 12 0 0 1 250 426 Z" fill="var(--bg)"/><animate attributeName="opacity" from="0" to="1" begin="4.03s" dur="0.35s" fill="freeze"/></g><path d="M250 426 L250 426 A12 12 0 0 1 262 414 L790 414 A12 12 0 0 1 802 426 L802 426" pathLength="1" stroke-dasharray="1 1" stroke-dashoffset="1" fill="none" stroke="var(--ink)" stroke-width="1.6" stroke-linecap="round" stroke-linejoin="round"><animate attributeName="stroke-dashoffset" values="1;0" begin="2.52s" dur="1.51s" fill="freeze" calcMode="spline" keyTimes="0;1" keySplines=".45 0 .25 1"/></path><path d="M250 426 L250 426 A12 12 0 0 0 262 438 L790 438 A12 12 0 0 0 802 426 L802 426" pathLength="1" stroke-dasharray="1 1" stroke-dashoffset="1" fill="none" stroke="var(--ink)" stroke-width="1.6" stroke-linecap="round" stroke-linejoin="round"><animate attributeName="stroke-dashoffset" values="1;0" begin="2.52s" dur="1.51s" fill="freeze" calcMode="spline" keyTimes="0;1" keySplines=".45 0 .25 1"/></path><text x="820" y="430.5" class="mo val" opacity="0">1.82<animate attributeName="opacity" from="0" to="1" begin="4.03s" dur="0.35s" fill="freeze"/></text><g opacity="0"><circle cx="392" cy="150" r="2.6" fill="var(--accent)"/><polyline points="392,150 452,150" fill="none" stroke="var(--accent)" stroke-width="1"/><rect x="454" y="139" width="262" height="22" fill="var(--bg)"/><text x="462" y="154" class="mo lab">4 KB &#183; SYNC ENGINE BUILT IN</text><animate attributeName="opacity" from="0" to="1" begin="4.43s" dur="0.4s" fill="freeze"/></g>
</svg>
